<svg width="56" height="56" viewBox="0 0 56 56" fill="none" xmlns="http://www.w3.org/2000/svg">
<path d="M28 18C22.475 18 18 22.475 18 28C18 33.525 22.475 38 28 38C33.525 38 38 33.525 38 28C38 22.475 33.525 18 28 18ZM50.35 25.5C49.2 15.075 40.925 6.8 30.5 5.65V3C30.5 1.625 29.375 0.5 28 0.5C26.625 0.5 25.5 1.625 25.5 3V5.65C15.075 6.8 6.8 15.075 5.65 25.5H3C1.625 25.5 0.5 26.625 0.5 28C0.5 29.375 1.625 30.5 3 30.5H5.65C6.8 40.925 15.075 49.2 25.5 50.35V53C25.5 54.375 26.625 55.5 28 55.5C29.375 55.5 30.5 54.375 30.5 53V50.35C40.925 49.2 49.2 40.925 50.35 30.5H53C54.375 30.5 55.5 29.375 55.5 28C55.5 26.625 54.375 25.5 53 25.5H50.35ZM28 45.5C18.325 45.5 10.5 37.675 10.5 28C10.5 18.325 18.325 10.5 28 10.5C37.675 10.5 45.5 18.325 45.5 28C45.5 37.675 37.675 45.5 28 45.5Z" fill="url(#paint0_linear_83_1263)"/>
<defs>
<linearGradient id="paint0_linear_83_1263" x1="19.0001" y1="21" x2="66.5001" y2="67.5" gradientUnits="userSpaceOnUse">
<stop stop-color="#1878BC"/>
<stop offset="1" stop-color="#0B3756"/>
</linearGradient>
</defs>
</svg>
