<svg width="51" height="51" viewBox="0 0 51 51" fill="none" xmlns="http://www.w3.org/2000/svg">
<rect x="0.410645" y="0.888916" width="50" height="50" rx="10" fill="#DDECF5"/>
<g clip-path="url(#clip0_83_1296)">
<path d="M12.4861 22.7718C12.2189 22.4892 11.9331 22.2446 11.7167 21.9491C10.7899 20.6872 10.6308 19.3122 11.3179 17.9106C12.0041 16.5099 13.1821 15.7606 14.7516 15.7485C17.7227 15.7251 20.6938 15.7413 23.6657 15.7413C23.7763 15.7413 23.8869 15.7413 24.0847 15.7413C23.924 15.6629 23.8336 15.6218 23.7472 15.5758C23.3581 15.3675 22.9544 15.1818 22.5846 14.942C21.7159 14.3792 21.3752 13.3749 21.6957 12.4125C22.0106 11.4639 22.9124 10.8462 23.9232 10.8955C24.6789 10.9318 25.3087 11.2451 25.6671 11.9127C26.0692 12.6628 26.3881 13.4572 26.7425 14.2331C26.7821 14.3203 26.816 14.4099 26.8806 14.5649C26.9953 14.2735 27.0736 14.0401 27.1769 13.8173C27.4756 13.1706 27.738 12.5013 28.1005 11.8909C28.5736 11.0941 29.3455 10.7937 30.2481 10.9132C31.1168 11.0279 31.7272 11.5252 32.0284 12.352C32.3343 13.1908 32.2076 14.0014 31.5657 14.611C31.1467 15.009 30.5751 15.2463 30.0697 15.5507C29.9776 15.6064 29.8727 15.6403 29.6886 15.7219C29.8759 15.73 29.9777 15.7388 30.0794 15.7388C32.0534 15.7388 34.0274 15.7372 36.0022 15.7396C38.2701 15.7429 39.9881 17.5102 39.9284 19.7748C39.8872 21.3468 38.7852 22.7912 37.2455 23.2925C37.1535 23.3224 37.0615 23.3507 36.9597 23.3821C39.6426 25.3723 39.5764 29.242 37.0687 31.216C37.2649 31.216 37.4094 31.2136 37.5548 31.216C38.3129 31.2289 38.945 31.8449 38.966 32.5909C38.9886 33.4096 38.4081 34.07 37.6121 34.1088C37.4425 34.1168 37.3691 34.1677 37.3182 34.3292C36.9557 35.4781 36.9549 36.6229 37.319 37.7718C37.3634 37.9131 37.4143 37.9825 37.5822 37.9922C38.4178 38.0398 38.9894 38.676 38.966 39.51C38.945 40.2794 38.3024 40.885 37.4942 40.885C31.6925 40.8866 25.8908 40.8858 20.0899 40.8858C18.962 40.8858 17.8333 40.889 16.7054 40.885C14.6628 40.8769 12.8882 39.6303 12.1842 37.7161C11.4882 35.8236 12.0364 33.7148 13.5664 32.3931C13.6261 32.3415 13.6843 32.2882 13.8054 32.18C13.5963 32.18 13.4525 32.1816 13.308 32.18C12.5354 32.1671 11.9032 31.543 11.8903 30.7816C11.8766 29.9791 12.4579 29.3219 13.237 29.2888C13.4275 29.2807 13.4929 29.2129 13.5454 29.045C13.8998 27.905 13.9006 26.7698 13.5389 25.6315C13.4961 25.4958 13.455 25.411 13.2814 25.4038C12.6419 25.3763 12.1971 25.038 11.9791 24.4495C11.7587 23.8536 11.9177 23.3224 12.3699 22.8792C12.411 22.8388 12.4538 22.8 12.4869 22.7694L12.4861 22.7718ZM14.5005 29.2824H14.8243C21.1976 29.2824 27.5709 29.2824 33.9442 29.2824C34.025 29.2824 34.1057 29.284 34.1856 29.2791C35.408 29.2162 36.2484 28.1407 36.0111 26.945C35.8278 26.0182 35.0269 25.4119 33.9781 25.411C27.5943 25.4102 21.2113 25.411 14.8275 25.411C14.729 25.411 14.6305 25.411 14.5013 25.411C14.8792 26.7101 14.8808 27.9809 14.4997 29.2824H14.5005ZM36.3502 34.1168H36.0555C29.662 34.1168 23.2685 34.1168 16.875 34.1168C16.8047 34.1168 16.7337 34.116 16.6634 34.1193C15.4435 34.1814 14.6022 35.2609 14.8404 36.4558C15.0237 37.3721 15.8222 37.9873 16.8459 37.9873C23.2596 37.989 29.6733 37.9873 36.0862 37.9873C36.1637 37.9873 36.242 37.9785 36.3453 37.972C35.9699 36.6875 35.9707 35.4167 36.3494 34.1168H36.3502ZM26.9525 33.152C30.387 33.152 33.8223 33.152 37.2568 33.152C37.7461 33.152 37.9883 32.9954 37.9964 32.6765C38.0045 32.3455 37.7574 32.1824 37.2463 32.1824C30.4774 32.1824 23.7085 32.1824 16.9395 32.1848C16.6885 32.1848 16.4366 32.2042 16.1879 32.2349C13.9959 32.5062 12.4554 34.7022 12.9455 36.8522C13.3645 38.6922 14.8977 39.9202 16.8023 39.9218C23.6415 39.925 30.4814 39.9234 37.3206 39.9234C37.3909 39.9234 37.4627 39.9274 37.5321 39.9194C37.7962 39.8879 37.9932 39.6844 37.9972 39.4463C38.002 39.1944 37.7986 38.9844 37.516 38.9578C37.4159 38.9481 37.315 38.9546 37.214 38.9546C30.4152 38.9546 23.6156 38.9554 16.8168 38.9505C16.5383 38.9505 16.2501 38.9263 15.982 38.8553C14.5715 38.4855 13.6503 37.1186 13.8352 35.6993C14.0258 34.2323 15.2497 33.1553 16.7401 33.1537C20.1448 33.1504 23.5494 33.1529 26.9541 33.1529L26.9525 33.152ZM23.8837 30.248C20.4693 30.248 17.0542 30.248 13.6398 30.248C13.5494 30.248 13.4582 30.2439 13.3678 30.2496C13.0642 30.2698 12.8519 30.4748 12.8567 30.7388C12.8607 31.002 13.0747 31.1982 13.3815 31.216C13.4614 31.2208 13.543 31.2176 13.6229 31.2176C20.3813 31.2176 27.1406 31.2176 33.899 31.2152C34.1501 31.2152 34.402 31.1966 34.6507 31.1659C36.8637 30.8922 38.4017 28.6962 37.9019 26.5309C37.4764 24.6885 35.9497 23.4782 34.0338 23.4774C27.2245 23.475 20.4152 23.4766 13.6059 23.4766C13.0941 23.4766 12.8486 23.6389 12.8559 23.9707C12.8632 24.2904 13.1054 24.4463 13.5946 24.4463C18.1579 24.4463 22.7203 24.4463 27.2835 24.4463C29.6006 24.4463 31.9169 24.4382 34.2341 24.4503C35.7212 24.4576 37.0049 25.7509 37.0284 27.2341C37.0558 28.9554 35.7899 30.2463 34.0661 30.2472C30.672 30.2496 27.277 30.2472 23.8829 30.2472L23.8837 30.248ZM17.3642 22.5118H17.7534C19.7476 22.5118 21.7417 22.5134 23.7367 22.5094C23.987 22.5094 24.2397 22.4892 24.4876 22.4529C25.9691 22.2333 27.0768 20.717 26.8419 19.2388C26.5996 17.7169 25.4427 16.7141 23.8974 16.7085C21.8023 16.7012 19.7072 16.7061 17.6121 16.7077C17.5483 16.7077 17.4845 16.7198 17.3989 16.7287C19.1323 18.4144 19.0177 20.9439 17.365 22.5126L17.3642 22.5118ZM29.9655 16.7109C31.6053 18.2869 31.6852 20.8301 29.9906 22.4852C30.0221 22.4949 30.0479 22.5094 30.0737 22.5094C32.1083 22.5094 34.1436 22.5409 36.1774 22.4957C37.7493 22.4601 38.966 21.1506 38.9644 19.6077C38.9636 18.064 37.7461 16.7553 36.175 16.7222C34.121 16.6786 32.0663 16.7117 29.9647 16.7117L29.9655 16.7109ZM17.6266 19.1265C17.3303 17.5449 15.9675 16.5801 14.3511 16.7642C12.9576 16.9232 11.8112 18.3095 11.8911 19.7385C11.9678 21.107 13.132 22.4093 14.3059 22.419C14.3059 21.8659 14.3035 21.3129 14.3059 20.7598C14.31 19.8168 15.0011 19.1306 15.9497 19.1265C16.5028 19.1241 17.055 19.1265 17.6258 19.1265H17.6266ZM26.6013 22.4932C27.9076 22.6095 29.0338 22.3269 29.7911 21.1724C30.4362 20.1882 30.412 18.9134 29.7387 17.9623C28.966 16.8716 27.8656 16.61 26.5924 16.7262C28.1385 18.186 28.3791 20.7316 26.6013 22.4932ZM27.5879 15.3465L27.692 15.4296C28.3072 15.189 28.9265 14.9597 29.5352 14.7046C29.8953 14.5536 30.2473 14.3792 30.5856 14.1847C31.045 13.9207 31.2581 13.4112 31.1629 12.8969C31.0692 12.3931 30.6607 11.9967 30.1254 11.8901C29.662 11.7981 29.1041 12.0056 28.8893 12.4504C28.4291 13.4031 28.0182 14.38 27.5879 15.3473V15.3465ZM26.1354 15.4369C26.0087 15.0889 25.9182 14.7942 25.7963 14.5141C25.4927 13.8149 25.1989 13.1093 24.8533 12.4311C24.6361 12.0048 24.0863 11.7997 23.6342 11.8885C23.0989 11.9935 22.6944 12.3842 22.5935 12.8953C22.5007 13.366 22.696 13.8948 23.0957 14.1378C24.0258 14.7038 25.056 15.0405 26.1346 15.4377L26.1354 15.4369ZM15.2731 22.4432C16.4874 22.2551 17.6008 21.1207 17.5967 20.0938C17.0348 20.0938 16.4721 20.0816 15.911 20.0978C15.5412 20.1091 15.2877 20.365 15.2772 20.7356C15.261 21.2975 15.2731 21.8595 15.2731 22.4432Z" fill="url(#paint0_linear_83_1296)"/>
</g>
<defs>
<linearGradient id="paint0_linear_83_1296" x1="20.6607" y1="22.0694" x2="46.5373" y2="46.5878" gradientUnits="userSpaceOnUse">
<stop stop-color="#1878BC"/>
<stop offset="1" stop-color="#0B3756"/>
</linearGradient>
<clipPath id="clip0_83_1296">
<rect width="29.0336" height="30" fill="white" transform="translate(10.894 10.8889)"/>
</clipPath>
</defs>
</svg>
