<svg width="259" height="70" viewBox="0 0 259 70" fill="none" xmlns="http://www.w3.org/2000/svg">
<g clip-path="url(#clip0_83_1474)">
<path d="M51.6526 37.8873C51.7277 37.6244 51.8028 37.2394 51.6526 37.061C51.1925 36.4977 50.6291 36 50.0094 35.3897C47.5587 42.169 45.1643 48.8169 42.7042 55.6526C42.5164 55.3709 42.4413 55.277 42.3944 55.1831C41.0892 52.338 39.784 49.4836 38.4883 46.6385C34.3756 37.5962 30.2535 28.554 26.1502 19.5117C25.7465 18.6291 25.2582 17.8779 24.3662 17.2488C18.2254 12.939 12.1315 8.57277 6.02817 4.22535C4.04695 2.80751 2.06573 1.40845 0.084507 0C0.056338 0.0187793 0.028169 0.0375587 0 0.0657277C14.1878 23.2864 28.3662 46.4976 42.5822 69.7746C42.6667 69.6338 42.7136 69.5775 42.7324 69.5117C44.3005 63.9343 45.8685 58.3474 47.446 52.77C48.8451 47.8122 50.2535 42.8545 51.6526 37.8873Z" fill="white"/>
<path d="M53.1738 38.2534C50.0658 48.798 47.0142 59.1642 43.9531 69.5304C44.1221 69.5304 44.1597 69.4459 44.216 69.3802C46.4602 66.7041 48.7231 64.0468 50.9484 61.352C51.3334 60.8919 51.6996 60.3285 51.7841 59.7745C52.6292 54.6478 53.3991 49.5116 54.2066 44.3849C54.2442 44.1595 54.3005 43.9436 54.3944 43.5398C55.4461 45.0046 56.3569 46.2722 57.2771 47.5398C57.3616 47.5398 57.4367 47.521 57.5212 47.5116C57.5212 46.8731 57.7653 46.122 57.4836 45.6055C56.1597 43.1736 54.6855 40.798 53.1832 38.2534H53.1738Z" fill="white"/>
<path d="M59.7932 32.1032C58.6195 31.0891 56.9857 31.0797 55.8214 32.0938C54.2064 33.4834 54.2251 36.0562 55.8495 37.4271C56.9951 38.3942 58.5444 38.413 59.7087 37.4647C60.6007 36.7417 61.0045 35.8309 60.9857 34.7698C60.9857 33.6618 60.6007 32.798 59.7932 32.1032Z" fill="white"/>
<path d="M78.3005 41.2205L78.4225 41.8497H78.4883L78.6103 41.2581L81.3333 29.0703H84.6855L80.1221 45.3896H76.8075L72.2441 29.0703H75.5963L78.3005 41.2205Z" fill="white"/>
<path d="M89.371 45.3896H86.1973V29.0703H89.371V45.3896Z" fill="white"/>
<path d="M99.2772 41.1265C99.2772 40.488 99.1081 39.9904 98.7795 39.6148C98.4509 39.2486 97.8687 38.8824 97.0424 38.5256C95.3429 37.934 94.0753 37.2674 93.2208 36.5162C92.3664 35.765 91.9532 34.7134 91.9532 33.3613C91.9532 32.0092 92.4509 30.9293 93.4368 30.0937C94.4227 29.2486 95.6809 28.8354 97.2114 28.8354C98.7419 28.8354 100.028 29.3049 101.005 30.2439C101.972 31.1829 102.451 32.366 102.413 33.7932L102.395 33.8589H99.2959C99.2959 33.1078 99.1081 32.5068 98.7326 32.0467C98.357 31.5866 97.8311 31.3519 97.1551 31.3519C96.5166 31.3519 96.0283 31.5491 95.6715 31.934C95.3147 32.319 95.1363 32.8073 95.1363 33.3894C95.1363 33.9247 95.3335 34.366 95.7279 34.7134C96.1222 35.0608 96.8077 35.4458 97.7936 35.8777C99.3429 36.4035 100.507 37.0608 101.287 37.8683C102.066 38.6758 102.46 39.7556 102.46 41.1265C102.46 42.4974 101.991 43.643 101.052 44.4411C100.113 45.2392 98.8546 45.643 97.2959 45.643C95.7373 45.643 94.3945 45.1923 93.2584 44.2815C92.1222 43.3707 91.5682 42.0749 91.6058 40.3754L91.6246 40.3096H94.7326C94.7326 41.3143 94.9485 42.0467 95.3711 42.488C95.7936 42.9293 96.4415 43.1453 97.2959 43.1453C97.972 43.1453 98.4696 42.9669 98.7889 42.6101C99.1175 42.2533 99.2772 41.765 99.2772 41.1547V41.1265Z" fill="white"/>
<path d="M115.897 45.3896H112.714V38.629H107.643V45.3896H104.451V29.0703H107.643V36.0844H112.714V29.0703H115.897V45.3896Z" fill="white"/>
<path d="M129.314 39.4835H129.38L131.136 29.0703H134.235L131.08 45.3896H128.113L125.812 35.3896H125.746L123.474 45.3896H120.516L117.361 29.0703H120.46L122.216 39.4835H122.282L124.638 29.0703H126.929L129.314 39.4835Z" fill="white"/>
<path d="M142.582 41.906H138.282L137.409 45.3896H134.188L138.78 29.0703H142.094L146.676 45.3896H143.456L142.573 41.906H142.582ZM138.93 39.3614H141.934L140.47 33.5867H140.404L138.939 39.3614H138.93Z" fill="white"/>
<path d="M152.535 38.6102H151.146V45.3896H147.953V29.0703H151.146V35.7088H152.178L155.362 29.0703H159.277L154.826 36.5257L159.643 45.3896H155.765L152.535 38.6102Z" fill="white"/>
<path d="M168.037 41.906H163.737L162.864 45.3896H159.643L164.244 29.0703H167.559L172.141 45.3896H168.92L168.037 41.906ZM164.385 39.3614H167.39L165.925 33.5867H165.859L164.394 39.3614H164.385Z" fill="white"/>
<path d="M176.601 38.9012V45.3894H173.418V29.0796H178.742C180.348 29.0796 181.606 29.5021 182.526 30.3472C183.437 31.1923 183.897 32.3754 183.897 33.8871C183.897 34.7416 183.709 35.474 183.324 36.0937C182.939 36.7134 182.385 37.2017 181.653 37.5679C182.488 37.8495 183.089 38.319 183.465 38.9763C183.831 39.6336 184.019 40.4599 184.019 41.4458V42.6007C184.019 43.0514 184.075 43.5303 184.179 44.0373C184.282 44.5538 184.47 44.92 184.723 45.1547V45.3894H181.427C181.164 45.1547 181.005 44.7603 180.93 44.2251C180.855 43.6899 180.826 43.1359 180.826 42.5819V41.474C180.826 40.6571 180.657 40.0279 180.329 39.5772C180 39.1265 179.521 38.9012 178.902 38.9012H176.592H176.601ZM176.601 36.3566H178.733C179.38 36.3566 179.878 36.1594 180.216 35.765C180.554 35.3707 180.723 34.8073 180.723 34.0749C180.723 33.3425 180.554 32.7322 180.216 32.2909C179.878 31.8495 179.39 31.6242 178.751 31.6242H176.61V36.3566H176.601Z" fill="white"/>
<path d="M190.516 29.0703L193.446 41.0515H193.512L196.469 29.0703H200.629V45.3896H197.455V40.6478L197.727 34.3004H197.662L194.544 45.3896H192.422L189.343 34.3849H189.277L189.558 40.6478V45.3896H186.385V29.0703H190.516Z" fill="white"/>
<path d="M210.582 41.906H206.282L205.409 45.3896H202.188L206.789 29.0703H210.103L214.686 45.3896H211.465L210.582 41.906ZM206.93 39.3614H209.934L208.47 33.5867H208.404L206.939 39.3614H206.93Z" fill="white"/>
<path d="M83.3802 67.3425C82.9389 68.0467 82.2816 68.6664 81.399 69.2017C80.5163 69.7369 79.399 69.9998 78.0469 69.9998C76.3004 69.9998 74.8919 69.4834 73.8403 68.4599C72.7792 67.4364 72.2534 65.981 72.2534 64.0843V59.1078C72.2534 57.2298 72.7605 55.7744 73.7839 54.751C74.8074 53.7181 76.1595 53.2017 77.8403 53.2017C79.6525 53.2017 81.0046 53.643 81.906 54.5256C82.8074 55.4082 83.2769 56.6758 83.3145 58.3284L83.2957 58.3941H80.3004C80.2816 57.474 80.075 56.7979 79.69 56.3754C79.3051 55.9528 78.7135 55.7369 77.9248 55.7369C77.136 55.7369 76.5351 56.0092 76.0938 56.5632C75.6525 57.1172 75.4365 57.9528 75.4365 59.0702V64.0749C75.4365 65.2204 75.6619 66.0655 76.1032 66.6195C76.5445 67.1735 77.1924 67.4458 78.0469 67.4458C78.6853 67.4458 79.1548 67.3613 79.4553 67.1923C79.7558 67.0233 80.0093 66.7697 80.1971 66.4317V63.5021H78.0469V61.258H83.3802V67.3331V67.3425Z" fill="white"/>
<path d="M88.9858 63.2767V69.7649H85.8027V53.4551H91.1267C92.7323 53.4551 93.9905 53.8776 94.9107 54.7227C95.8309 55.5678 96.2816 56.7509 96.2816 58.2626C96.2816 59.117 96.0938 59.8494 95.7088 60.4692C95.3239 61.0889 94.7699 61.5771 94.0375 61.9433C94.8732 62.225 95.4741 62.6945 95.8497 63.3518C96.2159 64.0091 96.4037 64.8354 96.4037 65.8213V66.9762C96.4037 67.4269 96.46 67.9058 96.5633 68.4128C96.6666 68.9293 96.8544 69.2955 97.1173 69.5302V69.7649H93.8215C93.5586 69.5302 93.399 69.1358 93.3239 68.6006C93.2581 68.0654 93.2206 67.5114 93.2206 66.9574V65.8494C93.2206 65.0325 93.0516 64.4034 92.7229 63.9527C92.3943 63.502 91.9154 63.2767 91.2957 63.2767H88.9858ZM88.9858 60.7321H91.1173C91.7652 60.7321 92.2628 60.5349 92.6009 60.1405C92.9389 59.7462 93.1079 59.1828 93.1079 58.4504C93.1079 57.718 92.9389 57.1077 92.6009 56.6663C92.2628 56.225 91.7746 55.9997 91.1361 55.9997H88.9952V60.7321H88.9858Z" fill="white"/>
<path d="M109.812 63.9058C109.812 65.8213 109.296 67.3142 108.253 68.394C107.211 69.4738 105.831 70.0091 104.103 70.0091C102.376 70.0091 100.995 69.4738 99.9624 68.394C98.9295 67.3142 98.4131 65.8213 98.4131 63.9058V59.333C98.4131 57.4269 98.9295 55.9339 99.9624 54.8447C100.995 53.7555 102.366 53.2109 104.084 53.2109C105.803 53.2109 107.183 53.7555 108.235 54.8447C109.277 55.9339 109.803 57.4269 109.803 59.333V63.9058H109.812ZM106.638 59.2954C106.638 58.1217 106.422 57.2391 105.991 56.6476C105.559 56.056 104.93 55.7555 104.094 55.7555C103.258 55.7555 102.629 56.0466 102.207 56.6476C101.784 57.2391 101.577 58.1217 101.577 59.3048V63.9152C101.577 65.0983 101.793 65.9903 102.216 66.5818C102.638 67.1734 103.268 67.4739 104.103 67.4739C104.939 67.4739 105.549 67.1828 105.991 66.5818C106.422 65.9903 106.638 65.0983 106.638 63.9152V59.3048V59.2954Z" fill="white"/>
<path d="M122.779 53.446V64.554C122.779 66.2911 122.272 67.6432 121.249 68.5822C120.225 69.5305 118.892 70 117.239 70C115.587 70 114.253 69.5211 113.23 68.5728C112.206 67.6244 111.699 66.2817 111.699 64.5446V53.4366H114.882V64.5446C114.882 65.5399 115.089 66.2723 115.502 66.7418C115.915 67.2113 116.488 67.446 117.239 67.446C117.99 67.446 118.591 67.2207 118.995 66.77C119.399 66.3193 119.596 65.5775 119.596 64.5352V53.4272H122.77L122.779 53.446Z" fill="white"/>
<path d="M128.263 63.9059V69.7651H125.07V53.4458H130.742C132.366 53.4458 133.652 53.9247 134.601 54.8918C135.54 55.8589 136.009 57.1172 136.009 58.6759C136.009 60.2345 135.54 61.5115 134.591 62.4693C133.643 63.427 132.366 63.9059 130.742 63.9059H128.263ZM128.263 61.3613H130.742C131.418 61.3613 131.944 61.1078 132.3 60.6101C132.657 60.1125 132.836 59.474 132.836 58.704C132.836 57.9341 132.657 57.2768 132.3 56.7697C131.944 56.2533 131.427 55.9998 130.732 55.9998H128.253V61.3707L128.263 61.3613Z" fill="white"/>
<path d="M154.085 63.9058C154.085 65.8213 153.568 67.3142 152.526 68.394C151.484 69.4738 150.103 70.0091 148.376 70.0091C146.648 70.0091 145.268 69.4738 144.235 68.394C143.202 67.3142 142.686 65.8213 142.686 63.9058V59.333C142.686 57.4269 143.202 55.9339 144.235 54.8447C145.268 53.7555 146.639 53.2109 148.357 53.2109C150.075 53.2109 151.455 53.7555 152.507 54.8447C153.549 55.9339 154.075 57.4269 154.075 59.333V63.9058H154.085ZM150.911 59.2954C150.911 58.1217 150.695 57.2391 150.263 56.6476C149.831 56.056 149.202 55.7555 148.366 55.7555C147.531 55.7555 146.902 56.0466 146.479 56.6476C146.056 57.2391 145.85 58.1217 145.85 59.3048V63.9152C145.85 65.0983 146.066 65.9903 146.488 66.5818C146.911 67.1734 147.54 67.4739 148.376 67.4739C149.211 67.4739 149.822 67.1828 150.263 66.5818C150.695 65.9903 150.911 65.0983 150.911 63.9152V59.3048V59.2954Z" fill="white"/>
<path d="M164.892 62.9857H159.352V69.7651H156.16V53.4458H165.869V55.9904H159.352V60.4411H164.892V62.9857Z" fill="white"/>
<path d="M179.831 65.5113C179.831 64.8728 179.662 64.3751 179.333 63.9996C179.005 63.6334 178.422 63.2672 177.596 62.9104C175.897 62.3188 174.629 61.6521 173.775 60.901C172.929 60.1498 172.507 59.0981 172.507 57.746C172.507 56.3939 173.005 55.3141 173.99 54.4784C174.976 53.6334 176.235 53.2202 177.765 53.2202C179.296 53.2202 180.582 53.6897 181.559 54.6287C182.526 55.5676 183.005 56.7507 182.967 58.178L182.948 58.2437H179.85C179.85 57.4925 179.662 56.8916 179.286 56.4315C178.911 55.9714 178.385 55.7366 177.709 55.7366C177.07 55.7366 176.582 55.9338 176.225 56.3188C175.868 56.7038 175.69 57.192 175.69 57.7742C175.69 58.3094 175.887 58.7507 176.282 59.0981C176.676 59.4456 177.361 59.8305 178.347 60.2625C179.897 60.7883 181.061 61.4456 181.84 62.2531C182.62 63.0606 183.014 64.1404 183.014 65.5113C183.014 66.8822 182.544 68.0277 181.606 68.8259C180.667 69.624 179.408 70.0277 177.85 70.0277C176.291 70.0277 174.948 69.577 173.812 68.6662C172.676 67.7554 172.122 66.4597 172.16 64.7601L172.178 64.6944H175.286C175.286 65.6991 175.502 66.4315 175.925 66.8728C176.347 67.3141 176.995 67.5301 177.85 67.5301C178.526 67.5301 179.023 67.3517 179.343 66.9949C179.671 66.6381 179.831 66.1498 179.831 65.5395V65.5113Z" fill="white"/>
<path d="M195.249 64.5068L195.286 64.5725C195.305 66.366 194.873 67.7181 194.009 68.6289C193.145 69.5397 191.868 69.9998 190.178 69.9998C188.488 69.9998 187.145 69.4834 186.131 68.4505C185.127 67.4176 184.62 65.9528 184.62 64.0467V59.1735C184.62 57.2862 185.108 55.812 186.084 54.7697C187.061 53.7275 188.366 53.2017 190 53.2017C191.737 53.2017 193.042 53.6618 193.925 54.5913C194.807 55.5209 195.268 56.8918 195.296 58.704L195.258 58.7697H192.188C192.235 57.6993 192.084 56.9294 191.746 56.4505C191.408 55.981 190.826 55.7463 189.991 55.7463C189.277 55.7463 188.723 56.028 188.338 56.5913C187.953 57.1547 187.765 57.9998 187.765 59.1359V64.0373C187.765 65.1923 187.972 66.0467 188.375 66.6101C188.779 67.1735 189.38 67.4552 190.16 67.4552C190.939 67.4552 191.465 67.2298 191.765 66.7885C192.066 66.3472 192.197 65.5866 192.16 64.5068H195.23H195.249Z" fill="white"/>
<path d="M208.657 69.7651H205.474V63.0045H200.403V69.7651H197.211V53.4458H200.403V60.4599H205.474V53.4458H208.657V69.7651Z" fill="white"/>
<path d="M222.122 63.9058C222.122 65.8213 221.605 67.3142 220.563 68.394C219.521 69.4738 218.14 70.0091 216.413 70.0091C214.685 70.0091 213.305 69.4738 212.272 68.394C211.239 67.3142 210.723 65.8213 210.723 63.9058V59.333C210.723 57.4269 211.239 55.9339 212.272 54.8447C213.305 53.7555 214.676 53.2109 216.394 53.2109C218.112 53.2109 219.493 53.7555 220.544 54.8447C221.587 55.9339 222.112 57.4269 222.112 59.333V63.9058H222.122ZM218.948 59.2954C218.948 58.1217 218.732 57.2391 218.3 56.6476C217.868 56.056 217.239 55.7555 216.403 55.7555C215.568 55.7555 214.939 56.0466 214.516 56.6476C214.094 57.2391 213.887 58.1217 213.887 59.3048V63.9152C213.887 65.0983 214.103 65.9903 214.525 66.5818C214.948 67.1734 215.577 67.4739 216.413 67.4739C217.248 67.4739 217.859 67.1828 218.3 66.5818C218.732 65.9903 218.948 65.0983 218.948 63.9152V59.3048V59.2954Z" fill="white"/>
<path d="M235.193 63.9058C235.193 65.8213 234.676 67.3142 233.634 68.394C232.592 69.4738 231.211 70.0091 229.484 70.0091C227.756 70.0091 226.376 69.4738 225.343 68.394C224.31 67.3142 223.793 65.8213 223.793 63.9058V59.333C223.793 57.4269 224.31 55.9339 225.343 54.8447C226.376 53.7555 227.747 53.2109 229.465 53.2109C231.183 53.2109 232.563 53.7555 233.615 54.8447C234.657 55.9339 235.183 57.4269 235.183 59.333V63.9058H235.193ZM232.019 59.2954C232.019 58.1217 231.803 57.2391 231.371 56.6476C230.939 56.056 230.31 55.7555 229.474 55.7555C228.639 55.7555 228.009 56.0466 227.587 56.6476C227.164 57.2391 226.958 58.1217 226.958 59.3048V63.9152C226.958 65.0983 227.174 65.9903 227.596 66.5818C228.019 67.1734 228.648 67.4739 229.484 67.4739C230.319 67.4739 230.93 67.1828 231.371 66.5818C231.803 65.9903 232.019 65.0983 232.019 63.9152V59.3048V59.2954Z" fill="white"/>
<path d="M240.46 67.2204H246.423V69.7651H237.268V53.4458H240.46V67.2204Z" fill="white"/>
<path d="M255.267 65.5113C255.267 64.8728 255.108 64.3751 254.77 63.9996C254.441 63.6334 253.859 63.2672 253.033 62.9104C251.333 62.3188 250.066 61.6521 249.211 60.901C248.366 60.1498 247.943 59.0981 247.943 57.746C247.943 56.3939 248.441 55.3141 249.427 54.4784C250.413 53.6334 251.671 53.2202 253.202 53.2202C254.732 53.2202 256.019 53.6897 256.995 54.6287C257.962 55.5676 258.441 56.7507 258.404 58.178L258.385 58.2437H255.286C255.286 57.4925 255.098 56.8916 254.723 56.4315C254.347 55.9714 253.821 55.7366 253.145 55.7366C252.507 55.7366 252.019 55.9338 251.662 56.3188C251.305 56.7038 251.127 57.192 251.127 57.7742C251.127 58.3094 251.324 58.7507 251.718 59.0981C252.112 59.4456 252.798 59.8305 253.784 60.2625C255.333 60.7883 256.497 61.4456 257.277 62.2531C258.056 63.0606 258.45 64.1404 258.45 65.5113C258.45 66.8822 257.981 68.0277 257.042 68.8259C256.103 69.624 254.845 70.0277 253.286 70.0277C251.727 70.0277 250.385 69.577 249.249 68.6662C248.112 67.7554 247.558 66.4597 247.596 64.7601L247.615 64.6944H250.723C250.723 65.6991 250.939 66.4315 251.361 66.8728C251.784 67.3141 252.432 67.5301 253.286 67.5301C253.962 67.5301 254.46 67.3517 254.779 66.9949C255.108 66.6381 255.267 66.1498 255.267 65.5395V65.5113Z" fill="white"/>
</g>
<defs>
<clipPath id="clip0_83_1474">
<rect width="258.451" height="70" fill="white"/>
</clipPath>
</defs>
</svg>
