<svg width="50" height="51" viewBox="0 0 50 51" fill="none" xmlns="http://www.w3.org/2000/svg">
<rect x="0.410645" y="0.888916" width="49.1789" height="50" rx="10" fill="#DDF5E1"/>
<g clip-path="url(#clip0_83_1313)">
<path d="M25.5294 40.8888C25.3048 40.7795 25.0627 40.6958 24.8595 40.5557C24.2894 40.1617 24.0788 39.5821 24.0788 38.91C24.0788 37.436 24.0832 35.9619 24.0729 34.4879C24.0715 34.314 23.9937 34.1379 23.9394 33.967C23.8462 33.6727 23.6885 33.3866 23.6569 33.0872C23.6026 32.5656 23.5865 32.0329 23.6217 31.5098C23.7002 30.3615 24.4376 29.6894 25.5954 29.674C26.3761 29.663 27.1575 29.6718 27.9389 29.6718C28.0453 29.6718 28.1516 29.6718 28.3123 29.6718C28.3123 29.371 28.3065 29.0937 28.3138 28.817C28.3329 28.0848 28.688 27.5749 29.3021 27.39C29.3667 27.3709 29.4349 27.3511 29.5017 27.3511C30.5546 27.3467 31.6096 27.31 32.661 27.3548C33.3881 27.3856 33.879 27.9711 33.9032 28.7019C33.9135 29.0129 33.9047 29.324 33.9047 29.6718C34.1409 29.6718 34.353 29.6703 34.565 29.6718C35.3552 29.6792 36.1469 29.6645 36.9364 29.7019C37.7772 29.7423 38.5183 30.4474 38.5733 31.2985C38.6166 31.9661 38.5667 32.6411 38.53 33.3118C38.5197 33.4974 38.4427 33.7043 38.3334 33.8547C38.1323 34.1298 38.1257 34.4255 38.1265 34.7403C38.1316 36.1263 38.1294 37.5123 38.1287 38.899C38.1287 39.9342 37.7185 40.5043 36.7368 40.8396C36.7104 40.8484 36.6891 40.8719 36.6656 40.8881H25.5301L25.5294 40.8888ZM26.4172 34.8672C26.4751 34.5554 26.6182 34.3742 26.9285 34.3756C27.5243 34.3786 28.1201 34.3705 28.7159 34.3793C29.038 34.3844 29.1906 34.5437 29.2097 34.8724C29.2199 35.0477 29.2236 35.2245 29.2097 35.3992C29.1935 35.5987 29.2632 35.6736 29.4687 35.6802C30.1415 35.7022 30.8136 35.7352 31.4849 35.7814C31.6287 35.7917 31.818 35.8387 31.895 35.9392C31.978 36.047 32.0249 36.287 31.9596 36.3809C31.865 36.5166 31.6566 36.6501 31.4966 36.6509C30.8341 36.6516 30.1701 36.6179 29.5097 36.5628C29.2698 36.543 29.1561 36.5826 29.0519 36.8174C28.7636 37.4682 28.0254 37.7588 27.3578 37.5218C26.7825 37.3178 26.4597 36.8182 26.4282 36.1028C26.4238 36.0045 26.4069 35.8541 26.3445 35.8196C25.9072 35.576 25.456 35.3566 24.996 35.1218C24.9916 35.215 24.9849 35.292 24.9842 35.3691C24.9842 36.5606 24.9813 37.7514 24.9842 38.943C24.9864 39.665 25.3401 40.0105 26.0716 40.0105C29.4312 40.0113 32.7909 40.0113 36.1506 40.0105C36.8872 40.0105 37.2475 39.6503 37.2489 38.9129C37.2504 37.7316 37.2489 36.5496 37.2489 35.3684V35.091C36.8821 35.2891 36.5629 35.496 36.2159 35.6384C35.9004 35.7675 35.7661 35.926 35.7654 36.2936C35.7639 37.0324 35.1197 37.6084 34.3867 37.6032C33.6582 37.5981 33.0668 37.0412 33.0316 36.2994C33.0096 35.8321 33.0154 35.3625 33.0213 34.8936C33.0257 34.5312 33.1783 34.3808 33.5408 34.3764C34.0485 34.3698 34.5569 34.3844 35.0639 34.3712C35.433 34.3617 35.7529 34.4006 35.8057 34.9149C36.2085 34.6537 36.5747 34.4475 36.9056 34.1951C37.326 33.8745 37.662 33.4702 37.698 32.9156C37.7295 32.4298 37.7347 31.9383 37.7016 31.4525C37.6649 30.9125 37.2651 30.5699 36.7207 30.5691C32.9802 30.5662 29.2397 30.5662 25.4985 30.5691C24.913 30.5691 24.5337 30.9477 24.5176 31.5391C24.5058 31.9588 24.5176 32.3785 24.5139 32.7989C24.511 33.168 24.6511 33.482 24.8786 33.7623C25.2814 34.2604 25.8096 34.584 26.4164 34.8658L26.4172 34.8672ZM33.0154 29.6549C33.0154 29.3292 33.0286 29.0364 33.0118 28.7451C32.9941 28.4296 32.8313 28.233 32.5605 28.2301C31.595 28.2183 30.6287 28.2205 29.6631 28.2286C29.418 28.2308 29.2471 28.3849 29.228 28.6233C29.2009 28.9601 29.2214 29.3006 29.2214 29.6549H33.0154ZM33.9091 35.2693C33.9091 35.6127 33.8944 35.9326 33.9135 36.251C33.9296 36.5188 34.1013 36.6744 34.3654 36.7074C34.6002 36.7367 34.8365 36.5738 34.8607 36.3148C34.8937 35.9722 34.8688 35.6237 34.8688 35.2693H33.9091ZM27.3402 35.2722C27.3402 35.6237 27.3292 35.9443 27.3438 36.2635C27.3548 36.5129 27.5581 36.7074 27.798 36.7081C28.0313 36.7081 28.2492 36.6039 28.2756 36.3669C28.3153 36.0082 28.2859 35.642 28.2859 35.2722H27.3409H27.3402Z" fill="url(#paint0_linear_83_1313)"/>
<path d="M16.0186 26.1736C13.6164 27.0922 13.2473 27.1304 12.8372 27.6806C13.2598 28.1025 13.6685 28.5479 14.1153 28.95C14.9862 29.7343 15.3523 30.6962 15.3325 31.865C15.298 33.8468 15.323 35.8292 15.323 37.811C15.323 37.8888 15.3267 37.9673 15.3215 38.0451C15.3002 38.3459 15.1337 38.5322 14.8842 38.5396C14.637 38.5469 14.4579 38.3635 14.4293 38.0678C14.4198 37.971 14.4242 37.8726 14.4242 37.7751C14.4242 35.7537 14.4095 33.733 14.4308 31.7117C14.4396 30.898 14.1894 30.231 13.5892 29.6793C13.1879 29.3102 12.8159 28.9096 12.3493 28.534C12.3316 28.7959 12.2913 29.0586 12.3008 29.319C12.4087 32.1768 12.5253 35.0346 12.6391 37.8924C12.6413 37.9511 12.6449 38.0098 12.6427 38.0678C12.6332 38.3422 12.4659 38.5293 12.2253 38.5396C11.9853 38.5499 11.7887 38.3723 11.7667 38.103C11.7417 37.7919 11.7322 37.4794 11.7205 37.1675C11.6354 34.9635 11.5517 32.7587 11.4666 30.5539C11.4497 30.1151 11.4167 29.6763 11.4123 29.2376C11.3984 27.7768 12.1159 26.7195 13.474 26.1883C14.1813 25.9117 14.8938 25.6475 15.5974 25.3621C15.7713 25.2917 15.9378 25.1772 16.0765 25.0488C16.392 24.7575 16.6833 24.4406 16.9937 24.1434C17.125 24.018 17.2783 23.9152 17.4478 23.7817C17.4478 23.5242 17.4596 23.2314 17.4412 22.9394C17.4346 22.8345 17.3744 22.7171 17.3047 22.6342C16.819 22.0567 16.4749 21.4096 16.312 20.6715C16.2731 20.4947 16.1939 20.4206 16.0083 20.3949C15.3318 20.3017 14.8901 19.7756 14.8644 19.0896C14.8409 18.474 14.9422 17.9252 15.5094 17.5554C15.5688 17.5165 15.5739 17.3551 15.5629 17.2546C15.4778 16.4805 15.3465 15.7101 15.2995 14.9339C15.2526 14.1561 15.414 13.4173 16.0097 12.8413C16.3348 12.5273 16.7266 12.3475 17.1602 12.239C17.2798 12.2089 17.4053 12.1656 17.5028 12.0937C18.8866 11.0768 20.4531 10.7796 22.1289 10.9227C23.1568 11.01 24.1187 11.2903 24.9566 11.9213C25.9215 12.6476 26.4292 13.644 26.6354 14.8055C26.7946 15.7065 26.7557 16.6111 26.606 17.5136C26.5855 17.6369 26.639 17.799 26.7117 17.9061C27.0616 18.419 27.0895 19.3097 26.7469 19.8255C26.5312 20.1506 26.2355 20.3648 25.8385 20.3956C25.6559 20.4103 25.5663 20.4793 25.5267 20.6627C25.3682 21.4015 25.0139 22.0421 24.5443 22.6312C24.4423 22.7589 24.4122 22.9636 24.3968 23.1375C24.3631 23.5102 24.3587 23.8375 24.7717 24.0965C25.1672 24.3445 25.4555 24.759 25.8033 25.0877C25.92 25.1978 26.0631 25.2946 26.2113 25.354C26.8342 25.605 27.4637 25.8405 28.0918 26.0804C28.2935 26.1575 28.4608 26.2668 28.485 26.5045C28.5181 26.8303 28.2099 27.0636 27.8761 26.944C27.2898 26.7342 26.7051 26.5155 26.1306 26.2756C25.9031 26.1809 25.7835 26.1978 25.6434 26.4187C25.1833 27.1436 24.6976 27.8516 24.2207 28.5655C23.6616 29.4034 23.283 29.5494 22.3233 29.297C22.3233 29.6932 22.3094 30.088 22.3255 30.482C22.3908 32.091 22.4657 33.7 22.5368 35.309C22.5757 36.1866 22.6168 37.0641 22.6506 37.9423C22.655 38.0561 22.6462 38.1808 22.6029 38.2835C22.5163 38.4868 22.3395 38.577 22.1245 38.5286C21.8992 38.4779 21.7848 38.3187 21.7745 38.0832C21.7393 37.293 21.6989 36.5035 21.6645 35.7141C21.583 33.8321 21.5045 31.9501 21.4238 30.0674C21.4223 30.0307 21.4106 29.994 21.4011 29.9427H20.4384C20.4186 30.22 20.3915 30.4981 20.3797 30.7769C20.2763 33.1761 20.1758 35.5746 20.0745 37.9739C20.073 38.0032 20.0745 38.0326 20.0716 38.0619C20.0444 38.3562 19.8661 38.544 19.6181 38.5403C19.354 38.5366 19.1772 38.3385 19.1889 38.0216C19.2366 36.7339 19.2916 35.447 19.3474 34.1593C19.4142 32.6185 19.4846 31.0777 19.5528 29.5369C19.5565 29.4599 19.5528 29.3829 19.5528 29.2772C19.4032 29.322 19.2792 29.3733 19.15 29.3953C18.544 29.5003 18.0832 29.2669 17.7479 28.7658C17.238 28.0035 16.7303 27.2397 16.2218 26.4766C16.1572 26.3798 16.0919 26.2837 16.0171 26.1729L16.0186 26.1736ZM17.0912 17.6486C17.2079 17.507 17.3546 17.3265 17.5036 17.1475C17.698 16.9142 17.9335 16.8679 18.1434 17.0198C18.3481 17.1688 18.3965 17.4285 18.2146 17.667C18.0091 17.937 17.7839 18.1996 17.5307 18.4234C17.1257 18.7822 16.8997 18.7506 16.4786 18.4197C16.3634 18.3295 16.1528 18.2862 16.0112 18.3207C15.7808 18.3772 15.6876 18.7074 15.75 19.0867C15.7896 19.3288 15.9034 19.4939 16.1778 19.5276C16.8073 19.6047 17.0054 19.7969 17.1514 20.4264C17.6107 22.4104 19.6211 23.7612 21.605 23.3525C23.2559 23.012 24.2963 21.9804 24.7086 20.3362C24.8385 19.8189 25.0894 19.5871 25.6074 19.5284C26.0161 19.4822 26.1467 19.2532 26.0785 18.7015C26.0374 18.3669 25.8503 18.2356 25.4798 18.2796C24.928 18.3449 24.6969 18.2187 24.4878 17.7352C24.3887 17.5055 24.2941 17.2744 24.2002 17.0506C23.8502 17.0991 23.5332 17.1526 23.2148 17.1864C22.0321 17.3104 20.8581 17.2913 19.7099 16.931C18.8808 16.6713 18.1669 16.2333 17.6012 15.5693C17.4001 15.3337 17.4038 15.0997 17.5968 14.917C17.778 14.7446 18.0341 14.7615 18.2505 14.964C18.3143 15.0234 18.3657 15.0982 18.4339 15.1525C18.6841 15.3528 18.9204 15.5795 19.1963 15.7373C20.0862 16.248 21.0694 16.3969 22.0753 16.347C22.7929 16.3111 23.5083 16.2039 24.2222 16.1115C24.6411 16.0572 24.7761 16.1188 24.9442 16.518C25.0425 16.7513 25.1562 16.9802 25.2318 17.2209C25.2934 17.4182 25.4335 17.4307 25.5707 17.3845C25.6515 17.3573 25.7549 17.2385 25.7564 17.1592C25.7718 16.4306 25.8437 15.6918 25.7512 14.975C25.6023 13.8142 25.0183 12.8927 23.9492 12.3285C23.3072 11.9895 22.6168 11.8472 21.9 11.7973C20.4384 11.6967 19.0921 11.9968 17.9079 12.9022C17.7824 12.9983 17.6173 13.0644 17.461 13.0945C16.6774 13.2471 16.2189 13.7255 16.2189 14.5157C16.2189 15.2053 16.2673 15.8987 16.3473 16.584C16.3993 17.0279 16.3854 17.5606 17.0949 17.6493L17.0912 17.6486ZM23.4892 23.5623C21.7496 24.5528 20.0532 24.5396 18.362 23.5741C18.2608 24.3936 18.26 24.3995 18.8155 24.8889C19.511 25.5008 20.2102 26.1076 20.9197 26.7276C21.7547 25.9968 22.5772 25.2785 23.3953 24.5543C23.4459 24.5095 23.4826 24.4237 23.4855 24.3547C23.4965 24.1119 23.4899 23.8683 23.4899 23.5616L23.4892 23.5623ZM21.5779 27.3329C21.638 27.4004 21.6791 27.4525 21.7261 27.4994C22.0365 27.809 22.3387 28.1282 22.6623 28.4239C22.8766 28.6198 23.1326 28.5772 23.3131 28.3124C23.8839 27.4759 24.443 26.6307 24.9992 25.7847C25.0344 25.7312 25.0366 25.6086 24.9992 25.5646C24.8069 25.335 24.5971 25.1193 24.3785 24.883C23.4173 25.7231 22.5038 26.5221 21.5771 27.3329H21.5779ZM16.7647 25.6828C16.9372 25.9418 17.1199 26.2169 17.3033 26.492C17.698 27.0841 18.0898 27.6784 18.489 28.2676C18.6937 28.5692 18.9409 28.6345 19.172 28.4173C19.5404 28.0717 19.8823 27.6975 20.2469 27.3226C19.3313 26.5221 18.4156 25.7224 17.4933 24.916C17.2497 25.1721 17.023 25.4113 16.7647 25.6828ZM20.919 27.9822C20.4803 28.3058 20.4267 28.4356 20.5052 29.0145H21.346C21.4451 28.5552 21.3189 28.2104 20.919 27.9822Z" fill="url(#paint1_linear_83_1313)"/>
</g>
<defs>
<linearGradient id="paint0_linear_83_1313" x1="31.0965" y1="27.3328" x2="31.0965" y2="40.8888" gradientUnits="userSpaceOnUse">
<stop stop-color="#1ADA2D"/>
<stop offset="1" stop-color="#0E7418"/>
</linearGradient>
<linearGradient id="paint1_linear_83_1313" x1="14.4106" y1="9.88892" x2="39.4106" y2="43.8889" gradientUnits="userSpaceOnUse">
<stop stop-color="#74D216"/>
<stop offset="1" stop-color="#0E7418"/>
</linearGradient>
<clipPath id="clip0_83_1313">
<rect width="27.1789" height="30" fill="white" transform="translate(11.4106 10.8889)"/>
</clipPath>
</defs>
</svg>
