<svg width="176" height="140" viewBox="0 0 176 140" fill="none" xmlns="http://www.w3.org/2000/svg">
<path d="M157.297 104.534C167.085 104.534 175.019 96.5998 175.019 86.8119C175.019 77.024 167.085 69.0894 157.297 69.0894C147.509 69.0894 139.574 77.024 139.574 86.8119C139.574 96.5998 147.509 104.534 157.297 104.534Z" fill="#EB2428"/>
<path d="M85.4751 40.4216C79.4664 40.5228 73.5994 40.9881 68.0156 42.0806C62.452 43.1731 57.1514 44.6702 52.2757 46.5112C49.8277 47.4419 47.4809 48.4332 45.2757 49.5055C44.163 50.0315 43.0705 50.5777 42.0387 51.1442C41.0676 51.5893 40.6225 52.176 40.3595 52.9852C40.2381 53.3696 40.2381 53.754 40.2381 54.4014C40.2381 54.9881 40.2381 55.5546 40.2179 56.1211C40.2179 57.254 40.1977 58.3667 40.1774 59.4592C40.137 61.6442 40.1167 63.7482 40.0763 65.7511C39.9346 73.7626 39.7728 80.2569 39.5907 84.728C39.4086 89.2193 39.2063 91.6875 39.004 91.6875C38.8017 91.6875 38.5994 89.1991 38.4173 84.728C38.2352 80.2366 38.0734 73.7626 37.9318 65.7511C37.8913 63.7482 37.8711 61.6442 37.8306 59.4592C37.8306 58.3667 37.8104 57.254 37.7902 56.1211C37.7902 55.5546 37.7901 54.9881 37.7699 54.4014C37.7699 53.8956 37.7294 53.0864 37.9318 52.3378C38.1341 51.5893 38.4982 50.8812 39.004 50.2743C39.4693 49.6875 40.2584 49.1413 40.7844 48.8783C41.8566 48.2714 42.9693 47.6644 44.1225 47.0979C46.4086 45.9448 48.7959 44.8927 51.3046 43.9014C56.3017 41.939 61.7439 40.3407 67.4895 39.1673C73.2352 37.9939 79.3045 37.4881 85.5155 37.387C97.9577 37.4881 109.712 40.098 119.666 44.1037C122.215 44.9939 124.541 46.1875 126.828 47.3003C127.961 47.8667 129.094 48.413 130.206 48.939C130.449 49.0604 130.793 49.2222 131.137 49.465C131.461 49.7078 131.764 49.9708 132.027 50.254C132.553 50.8407 132.937 51.5488 133.14 52.2771C133.383 52.9852 133.362 53.8754 133.362 54.3812C133.362 54.9679 133.362 55.5343 133.342 56.1008C133.342 57.2338 133.322 58.3465 133.302 59.439C133.261 61.6239 133.241 63.728 133.2 65.7309C133.059 73.7424 132.897 80.2366 132.715 84.7077C132.533 89.199 132.33 91.6672 132.128 91.6672C131.926 91.6672 131.724 89.1788 131.541 84.7077C131.359 80.2164 131.198 73.7424 131.056 65.7309C131.015 63.728 130.995 61.6239 130.955 59.439C130.955 58.3465 130.935 57.2338 130.914 56.1008C130.854 55.0083 130.995 53.6528 130.752 53.0054C130.631 52.621 130.409 52.2569 130.146 51.9534C130.004 51.8118 129.842 51.6702 129.68 51.5488C129.539 51.4476 129.316 51.3465 129.013 51.2049C127.92 50.6991 126.807 50.1933 125.695 49.6673C123.449 48.6153 121.163 47.4823 118.674 46.6731C108.943 42.9101 97.5733 40.4824 85.5357 40.3812L85.4751 40.4216Z" fill="#333333"/>
<path d="M82.523 1.78035C83.5346 1.19365 84.5461 0.586704 85.5375 0C101.54 9.4075 116.754 18.3497 130.592 26.4826C144.754 34.8988 157.5 42.4855 168.222 48.8583C162.335 52.0751 156.994 55.0086 152.321 57.5577C148.092 59.8236 144.471 61.7658 141.497 63.3641C138.523 64.9421 136.196 66.1358 134.598 66.9248C133 67.7138 132.15 68.078 132.089 67.9768C132.029 67.8756 132.798 67.3496 134.295 66.3785C135.792 65.4277 138.017 64.0519 140.91 62.3323C143.803 60.6126 147.364 58.5288 151.491 56.0809C155.153 53.9363 159.321 51.5086 163.933 48.8179C159.24 46.1473 154.101 43.2138 148.598 40.0578C142.529 36.5578 136.035 32.815 129.196 28.8699C115.783 21.0809 101.055 12.5231 85.5577 3.49999L84.0808 4.36994C68.3005 13.6358 53.2283 22.4768 39.5115 30.5289C32.6329 34.5346 26.0982 38.3381 19.948 41.919C16.8728 43.6994 13.8988 45.419 11.0462 47.078C9.60983 47.9075 8.21387 48.7167 6.83815 49.5057C6.25145 49.8294 5.68496 50.1734 5.11849 50.4971L4.5318 50.8207C9.46821 53.3496 13.9393 55.6358 17.8641 57.6589C22.315 59.9652 26.1387 61.9479 29.2745 63.5664C32.3901 65.2051 34.8179 66.4999 36.4364 67.4103C38.0549 68.3207 38.8843 68.8467 38.8439 68.9479C38.8034 69.049 37.8728 68.7051 36.1734 67.9768C34.4537 67.2485 31.9653 66.1155 28.7688 64.6386C25.5722 63.1415 21.6676 61.3207 17.1358 59.1964C12.078 56.7889 6.33236 54.0375 0 51.0028C10.9046 44.4682 23.8121 36.7196 38.1155 28.1416C51.8121 20.0289 66.8236 11.1069 82.5635 1.78035H82.523Z" fill="#333333"/>
<path d="M148.153 87.4193C148.112 83.7979 150.702 80.7228 153.595 79.8326C156.528 78.8413 159.422 79.7922 161.04 81.2488C162.719 82.7054 163.306 84.4858 163.387 85.639C163.488 86.8124 163.205 87.4193 163.023 87.4193C162.8 87.4193 162.638 86.8326 162.234 85.9222C161.829 85.032 161.081 83.8182 159.725 82.9482C158.41 82.0783 156.387 81.6736 154.526 82.4424C152.685 83.1505 151.147 85.1332 151.167 87.3991C151.167 89.665 152.685 91.6476 154.526 92.3557C156.387 93.1245 158.39 92.7199 159.725 91.8499C161.081 90.98 161.829 89.7661 162.234 88.8759C162.638 87.9858 162.78 87.3788 163.023 87.3788C163.205 87.3788 163.468 87.9858 163.387 89.1592C163.286 90.3124 162.719 92.0927 161.04 93.5494C159.422 95.006 156.528 95.9569 153.595 94.9655C150.702 94.0754 148.112 91.0002 148.153 87.3788V87.4193Z" fill="#333333"/>
<path d="M154.85 67.9771C154.85 60.9366 155.537 55.2112 156.367 55.2112C157.196 55.2112 157.884 60.9164 157.884 67.9771C157.884 75.0378 157.196 80.743 156.367 80.743C155.537 80.743 154.85 75.0378 154.85 67.9771Z" fill="#333333"/>
<path d="M153.132 134.679L153.172 134.538L153.253 134.214L153.435 133.567C153.678 132.697 154.002 131.887 154.325 131.098C154.993 129.5 155.883 128.003 156.854 126.688C157.805 125.353 158.898 124.159 159.707 123.006C160.152 122.439 160.577 121.873 161.002 121.306C161.406 120.74 161.71 120.113 162.074 119.526C163.571 117.22 164.299 114.731 164.846 112.425C165.129 110.078 165.21 107.832 164.704 105.85C163.875 101.824 161.852 98.9712 160.496 97.0694C159.08 95.1879 158.129 94.2573 158.25 94.0954C158.372 93.9336 159.586 94.581 161.346 96.3007C163.025 98.0405 165.493 100.893 166.707 105.324C167.415 107.509 167.476 110.078 167.253 112.769C166.768 115.419 165.999 118.272 164.441 120.841C164.077 121.488 163.733 122.197 163.308 122.824C162.863 123.451 162.398 124.078 161.953 124.705C161.042 126.02 160.071 127.133 159.221 128.347C158.372 129.581 157.623 130.835 157.057 132.231C156.773 132.939 156.51 133.647 156.308 134.356L156.167 134.902L156.106 135.185L156.065 135.347L156.025 135.65C155.944 136.055 155.883 136.48 155.904 136.945C155.904 137.188 155.863 137.37 155.904 137.673L156.045 138.604L154.75 139.312H154.71L153.456 140C152.95 139.434 152.464 138.786 151.958 138.159C151.513 137.532 150.906 136.743 150.583 136.257C150.097 135.549 149.632 134.841 149.187 134.133C148.297 132.717 147.487 131.26 146.759 129.804C145.282 126.91 144.19 123.936 143.461 121.003C141.964 115.156 142.389 109.451 144.008 105.182C145.626 100.893 148.013 98.0405 149.773 96.3209C151.554 94.581 152.747 93.8931 152.849 94.0145C153.01 94.1966 152.08 95.1879 150.643 97.0897C149.207 98.9712 147.224 101.864 146.01 105.85C144.797 109.835 144.635 114.934 146.152 120.315C146.901 122.986 147.973 125.737 149.409 128.468C150.117 129.824 150.886 131.179 151.756 132.514C152.181 133.182 152.626 133.85 153.091 134.517C153.233 134.72 153.132 134.578 153.172 134.619L153.132 134.679Z" fill="#333333"/>
<path d="M126.04 31.9455C140.95 40.645 152.684 48.2923 152.259 49.0207C151.835 49.749 139.413 43.275 124.502 34.5756C109.592 25.8762 97.8578 18.2288 98.2827 17.5005C98.7075 16.7722 111.129 23.2461 126.04 31.9455Z" fill="#333333"/>
<path d="M133.849 92.0113C133.849 93.2859 133.343 94.4391 132.716 95.309C132.069 96.179 131.341 96.887 130.572 97.4737C129.034 98.6471 127.395 99.4564 125.777 100.164C122.5 101.56 119.202 102.471 115.924 103.219C109.37 104.676 102.976 105.384 96.8666 105.769C84.6672 106.477 73.6412 105.829 64.4967 104.454C55.3725 103.078 48.069 100.913 43.517 98.2425C41.2309 96.9477 39.7135 95.4102 39.0864 94.1154C38.4794 92.7801 38.7424 91.9709 38.8031 92.0113C38.9448 92.0113 38.9245 92.7396 39.6124 93.8119C40.3205 94.8639 41.8176 96.1183 44.0835 97.2108C48.5748 99.4362 55.7771 101.237 64.8002 102.329C73.8233 103.401 84.7077 103.826 96.6846 102.977C102.673 102.532 108.945 101.763 115.257 100.326C118.393 99.5778 121.589 98.6876 124.563 97.3928C126.04 96.7454 127.497 95.9969 128.711 95.0663C129.904 94.1558 130.835 92.9824 130.794 92.0113C130.835 91.0402 129.904 89.8668 128.711 88.9564C127.497 88.0258 126.04 87.2772 124.563 86.6298C121.569 85.335 118.393 84.4449 115.257 83.6963C108.945 82.2599 102.673 81.4911 96.6846 81.046C84.7077 80.1963 73.8233 80.601 64.8002 81.6934C55.7973 82.7859 48.5748 84.5865 44.0835 86.8119C41.8176 87.9044 40.3407 89.1587 39.6124 90.2107C38.9245 91.283 38.9448 92.0316 38.8031 92.0113C38.7424 92.0316 38.4794 91.2426 39.0864 89.9073C39.7135 88.6125 41.2309 87.0749 43.517 85.7801C48.069 83.1298 55.3725 80.9651 64.4967 79.5692C73.6412 78.1934 84.647 77.546 96.8666 78.2541C102.956 78.6385 109.37 79.3466 115.924 80.8033C119.202 81.5518 122.5 82.4622 125.777 83.8582C127.416 84.5662 129.034 85.3755 130.572 86.5489C131.341 87.1356 132.069 87.8235 132.716 88.7137C133.343 89.5836 133.869 90.7368 133.849 92.0113Z" fill="#333333"/>
</svg>
