<svg width="119" height="160" viewBox="0 0 119 160" fill="none" xmlns="http://www.w3.org/2000/svg">
<path d="M90.458 98.0191C94.6642 79.4608 83.0294 61.0066 64.4711 56.8005C45.9128 52.5944 27.4587 64.2291 23.2526 82.7874C19.0465 101.346 30.6811 119.8 49.2394 124.006C67.7977 128.212 86.2519 116.577 90.458 98.0191Z" fill="#1878BC"/>
<path d="M25.545 119.526C20.5687 113.957 17.346 106.896 16.3981 99.5972C15.9242 95.9479 15.9005 92.2275 16.5403 88.6256C16.7299 86.801 17.3223 85.0474 17.7488 83.2938C18.3886 81.5877 18.9337 79.8578 19.7867 78.2464C20.5213 76.5877 21.5166 75.0711 22.4645 73.5308C23.5545 72.0853 24.5735 70.5924 25.8294 69.3128C28.1991 66.6114 31.019 64.3365 34.0521 62.4882C37.0616 60.5687 40.3792 59.1943 43.7678 58.2701C44.6209 58.0569 45.4739 57.8199 46.327 57.6304L48.9337 57.2275C49.7867 57.0616 50.6635 57.0379 51.5403 56.9905C52.4882 56.8957 52.9621 56.9905 54.9763 56.7299C60.1422 64.0048 65.237 71.1848 70.2607 78.2464C72.891 76.3744 75.4976 74.5261 78.0806 72.7014C79.4313 74.5735 80.782 76.4218 82.1327 78.2939C85.3081 75.9953 88.4597 73.7204 91.5877 71.4455C90.2607 69.6209 88.9337 67.7962 87.6303 65.9716C90.5213 63.91 93.3886 61.8721 96.2559 59.8579C82.0853 39.8342 68.8152 21.0663 56.6825 3.90994C55.0711 5.04738 53.4834 6.18484 51.8957 7.29858C51.0901 6.13745 50.3081 4.99998 49.5261 3.86254C43.3649 8.08055 37.4408 12.1327 31.8009 16.0189C32.654 17.2512 33.4834 18.4597 34.2891 19.6682C32.8673 20.6635 31.4692 21.6587 30.0711 22.6303C35.0948 29.763 39.8104 36.4692 44.2417 42.7725C42.3697 43.2464 40.5213 43.7204 38.6967 44.1943C37.3934 44.5735 36.1374 45.0711 34.8578 45.4976C32.3934 46.4692 30 47.5118 27.8436 48.7915C23.4834 51.2796 19.6209 54.0995 16.5166 57.2512C10.1896 63.4597 6.39811 70.2133 4.12323 75.9242C-0.236963 87.583 0.616122 94.6446 0.165885 94.5498C0.118492 94.5498 0.0947929 94.1232 0.0710962 93.2938C0.0710962 92.4645 0.0710922 91.2085 0.0947889 89.5734C0.402846 86.327 0.900476 81.4455 3.05687 75.4976C5.21327 69.5971 8.95735 62.5592 15.3555 56.0427C18.5071 52.7488 22.4408 49.7394 26.9194 47.109C29.1469 45.7583 31.6114 44.6445 34.1469 43.6019C35.4502 43.1517 36.7536 42.6303 38.1043 42.2038C38.9811 41.9668 39.8578 41.7299 40.7583 41.4929C36.3744 35.4266 31.7062 28.9573 26.7536 22.0616C28.128 21.0663 29.5024 20.0711 30.9242 19.0521C30.0711 17.8436 29.218 16.6114 28.3412 15.3791C35.3318 10.4976 42.6303 5.40284 50.237 0.0710872C51.019 1.18483 51.801 2.29857 52.5829 3.43601C54.1706 2.29857 55.7583 1.16114 57.346 0C70.6635 18.6019 85.2133 38.91 100.758 60.5924C97.9384 62.6067 95.0948 64.6445 92.2275 66.6824C93.5545 68.4834 94.8815 70.3081 96.2085 72.1327C91.327 75.6872 86.4218 79.2891 81.4218 82.9147C80.0711 81.0663 78.7204 79.1943 77.346 77.3459C74.7393 79.1943 72.1327 81.0664 69.5024 82.9621C64.1943 75.5451 58.8152 67.9858 53.3412 60.3317L51.7773 60.4266C50.9953 60.4739 50.1896 60.4739 49.4076 60.6398L47.0379 60.9952C46.2559 61.1611 45.4976 61.3981 44.7157 61.5877C41.6351 62.4407 38.6256 63.673 35.9242 65.4265C33.1754 67.109 30.6161 69.1943 28.4834 71.635C27.3223 72.7962 26.4218 74.1706 25.4266 75.474C24.5972 76.8721 23.673 78.2465 23.0095 79.7631C22.2275 81.2086 21.7536 82.7962 21.1611 84.3365C20.782 85.9479 20.237 87.5119 20.0711 89.1706C19.5024 92.4408 19.5261 95.8057 19.9526 99.0996C20.8294 105.711 23.7204 112.109 28.2465 117.133C30.5213 119.763 33.2464 121.991 36.2085 123.744C39.1706 125.521 42.3697 126.896 45.7109 127.654C52.3697 129.313 59.455 128.815 65.7583 126.445C72.0616 124.076 77.6066 119.834 81.4455 114.431C82.3934 113.081 83.2938 111.683 84.0284 110.213L84.5261 109.289L84.5972 109.147L84.6683 108.957C84.6683 108.957 84.6683 108.957 84.6209 108.957C83.1754 109.858 81.7299 110.758 80.2844 111.659C77.4645 107.133 74.6683 102.63 71.9194 98.1991C85.1659 89.9763 98.0806 81.9431 110.616 74.1706C113.389 78.6493 116.161 83.0805 118.886 87.4881C116.066 89.2417 113.27 90.9716 110.498 92.7014L108.957 93.673C108.957 93.673 108.863 93.6493 108.91 93.9811C108.981 95.5214 108.886 96.8009 108.815 98.2227C108.412 103.744 107.227 109.147 105.284 114.171C103.318 119.171 100.711 123.839 97.5356 127.962C95.9242 130 94.2654 131.967 92.3934 133.744C91.5166 134.668 90.5213 135.474 89.5735 136.327C89.0995 136.754 88.6019 137.133 88.1043 137.536L87.2038 138.246C87.1801 145.711 87.1564 152.986 87.1327 160C61.8247 159.882 39.2417 159.763 19.9763 159.668C20.0237 151.659 20.0948 144.218 20.1422 137.441C19.5024 136.896 18.8626 136.374 18.2228 135.853C17.5119 135.19 16.8246 134.55 16.1374 133.91C14.8104 132.583 13.5545 131.28 12.4408 129.905C10.1896 127.204 8.31754 124.479 6.80096 121.801C3.79148 116.446 2.13271 111.469 1.20854 107.37C0.284365 103.246 0.118483 100.024 0 97.8673C0 95.6872 0.0473966 94.5971 0.142183 94.5971C0.426544 94.5971 0.118491 99.1232 2.10901 107.156C3.15167 111.161 4.95261 115.972 7.98579 121.137C9.52607 123.697 11.3981 126.327 13.6493 128.886C14.763 130.19 15.9953 131.446 17.3223 132.701C18.0095 133.318 18.673 133.91 19.3839 134.55C20.2133 135.237 21.0664 135.9 21.9431 136.611C21.9905 143.033 22.0379 150.047 22.109 157.607C39.9763 157.512 60.9479 157.393 84.4313 157.275C84.4076 150.687 84.3839 143.863 84.3602 136.872L86.327 135.284C86.801 134.905 87.2749 134.55 87.7014 134.147C88.5782 133.341 89.5024 132.559 90.3555 131.683C92.109 130 93.673 128.128 95.1896 126.185C98.1754 122.275 100.616 117.844 102.441 113.128C104.242 108.389 105.332 103.294 105.687 98.0806C105.735 96.8009 105.829 95.3792 105.758 94.2181L105.592 92.4408C105.427 92.0617 105.877 91.9668 106.114 91.7772L106.943 91.256L108.863 90.0474C110.711 88.8863 112.583 87.7015 114.479 86.5166C112.867 83.9574 111.256 81.3744 109.621 78.7678C98.9574 85.4502 87.9621 92.3223 76.7062 99.3602C78.2702 101.872 79.8578 104.408 81.4692 106.967C82.9147 106.066 84.3839 105.142 85.8294 104.242C87.3223 103.294 88.5782 102.583 89.9289 101.825L90.9242 101.256C91.0664 101.209 91.327 100.972 91.3507 101.066L91.1611 101.635L90.3792 103.934L89.5972 106.232L88.7441 108.389L87.891 110.545C87.7251 110.972 87.654 111.114 87.5356 111.327L87.2275 111.919C86.4218 113.531 85.4266 115.071 84.3839 116.564C80.1659 122.512 74.0758 127.228 67.109 129.834C60.1422 132.465 52.3223 133.009 44.9763 131.185C41.2796 130.355 37.7488 128.839 34.4787 126.872C31.2085 124.929 28.1991 122.464 25.6872 119.573L25.545 119.526Z" fill="#333333"/>
<path d="M72.6312 34.574C80.617 45.8299 86.4464 55.4033 85.6644 55.9721C84.8587 56.5408 77.726 47.8915 69.7402 36.6356C61.7544 25.3796 55.925 15.8062 56.707 15.2375C57.489 14.6687 64.6454 23.318 72.6312 34.574Z" fill="#333333"/>
</svg>
