<svg width="25" height="25" viewBox="0 0 25 25" fill="none" xmlns="http://www.w3.org/2000/svg">
<g clip-path="url(#clip0_83_1512)">
<path d="M12.5075 0C7.28743 0 5.76077 0.00538507 5.46401 0.0300025C4.39277 0.119049 3.72617 0.287717 2.99995 0.649286C2.44029 0.927194 1.99891 1.24934 1.56329 1.70091C0.769958 2.52444 0.289148 3.53761 0.115095 4.74194C0.0304727 5.3266 0.0058552 5.44585 0.000854773 8.43225C-0.00106847 9.42772 0.000854773 10.7378 0.000854773 12.4951C0.000854773 17.7109 0.00662449 19.236 0.0316266 19.5322C0.118172 20.5746 0.281648 21.2305 0.627831 21.9478C1.28943 23.321 2.55299 24.3519 4.04158 24.7365C4.55701 24.8692 5.12629 24.9423 5.85712 24.9769C6.16676 24.9904 9.3228 25 12.4808 25C15.6387 25 18.7967 24.9962 19.0986 24.9808C19.9449 24.941 20.4362 24.875 20.9796 24.7346C21.7177 24.5453 22.4055 24.1972 22.9952 23.7145C23.5848 23.2319 24.0619 22.6263 24.3933 21.9401C24.7328 21.2401 24.9049 20.5592 24.9828 19.5713C24.9997 19.3559 25.0068 15.9215 25.0068 12.4918C25.0068 9.06154 24.9991 5.63355 24.9822 5.41815C24.9033 4.41422 24.7312 3.73916 24.3808 3.02564C24.0933 2.44155 23.774 2.00536 23.3105 1.55936C22.4835 0.769296 21.4719 0.288486 20.2662 0.114625C19.6821 0.0301949 19.5658 0.00519275 16.5771 0H12.5075Z" fill="url(#paint0_radial_83_1512)"/>
<path d="M12.5075 0C7.28743 0 5.76077 0.00538507 5.46401 0.0300025C4.39277 0.119049 3.72617 0.287717 2.99995 0.649286C2.44029 0.927194 1.99891 1.24934 1.56329 1.70091C0.769958 2.52444 0.289148 3.53761 0.115095 4.74194C0.0304727 5.3266 0.0058552 5.44585 0.000854773 8.43225C-0.00106847 9.42772 0.000854773 10.7378 0.000854773 12.4951C0.000854773 17.7109 0.00662449 19.236 0.0316266 19.5322C0.118172 20.5746 0.281648 21.2305 0.627831 21.9478C1.28943 23.321 2.55299 24.3519 4.04158 24.7365C4.55701 24.8692 5.12629 24.9423 5.85712 24.9769C6.16676 24.9904 9.3228 25 12.4808 25C15.6387 25 18.7967 24.9962 19.0986 24.9808C19.9449 24.941 20.4362 24.875 20.9796 24.7346C21.7177 24.5453 22.4055 24.1972 22.9952 23.7145C23.5848 23.2319 24.0619 22.6263 24.3933 21.9401C24.7328 21.2401 24.9049 20.5592 24.9828 19.5713C24.9997 19.3559 25.0068 15.9215 25.0068 12.4918C25.0068 9.06154 24.9991 5.63355 24.9822 5.41815C24.9033 4.41422 24.7312 3.73916 24.3808 3.02564C24.0933 2.44155 23.774 2.00536 23.3105 1.55936C22.4835 0.769296 21.4719 0.288486 20.2662 0.114625C19.6821 0.0301949 19.5658 0.00519275 16.5771 0H12.5075Z" fill="url(#paint1_radial_83_1512)"/>
<path d="M12.5017 3.26953C9.99452 3.26953 9.67988 3.28049 8.69518 3.32531C7.71241 3.37031 7.04158 3.5259 6.45461 3.75419C5.84744 3.98998 5.3324 4.30539 4.81928 4.8187C4.30577 5.33182 3.99036 5.84686 3.7538 6.45384C3.52494 7.041 3.36916 7.71202 3.32492 8.69441C3.28107 9.67911 3.26953 9.99395 3.26953 12.5011C3.26953 15.0082 3.28069 15.3219 3.32531 16.3066C3.3705 17.2894 3.52609 17.9602 3.75419 18.5472C3.99017 19.1543 4.30558 19.6694 4.81889 20.1825C5.33182 20.696 5.84686 21.0122 6.45365 21.248C7.041 21.4763 7.71202 21.6319 8.69461 21.6769C9.6793 21.7217 9.99375 21.7326 12.5007 21.7326C15.008 21.7326 15.3217 21.7217 16.3064 21.6769C17.2892 21.6319 17.9608 21.4763 18.5481 21.248C19.1551 21.0122 19.6694 20.696 20.1823 20.1825C20.6958 19.6694 21.0112 19.1543 21.2478 18.5474C21.4747 17.9602 21.6305 17.2892 21.6767 16.3068C21.7209 15.3221 21.7324 15.0082 21.7324 12.5011C21.7324 9.99395 21.7209 9.6793 21.6767 8.69461C21.6305 7.71183 21.4747 7.041 21.2478 6.45403C21.0112 5.84686 20.6958 5.33182 20.1823 4.8187C19.6688 4.3052 19.1553 3.98978 18.5476 3.75419C17.959 3.5259 17.2878 3.37031 16.3051 3.32531C15.3204 3.28049 15.0069 3.26953 12.499 3.26953H12.5017ZM11.6735 4.93313C11.9193 4.93275 12.1936 4.93313 12.5017 4.93313C14.9665 4.93313 15.2586 4.94198 16.232 4.98622C17.132 5.02737 17.6206 5.17777 17.946 5.30413C18.3768 5.47145 18.6839 5.67147 19.0068 5.99457C19.3299 6.31767 19.5299 6.62539 19.6977 7.0562C19.824 7.38123 19.9746 7.86973 20.0156 8.7698C20.0598 9.74296 20.0694 10.0353 20.0694 12.499C20.0694 14.9626 20.0598 15.255 20.0156 16.2281C19.9744 17.1282 19.824 17.6167 19.6977 17.9417C19.5303 18.3725 19.3299 18.6793 19.0068 19.0022C18.6837 19.3253 18.377 19.5253 17.946 19.6927C17.6209 19.8196 17.132 19.9696 16.232 20.0108C15.2588 20.055 14.9665 20.0646 12.5017 20.0646C10.0366 20.0646 9.7445 20.055 8.77134 20.0108C7.87127 19.9692 7.38276 19.8188 7.05716 19.6925C6.62635 19.5251 6.31864 19.3251 5.99553 19.002C5.67243 18.6789 5.47241 18.372 5.3047 17.941C5.17835 17.6159 5.02776 17.1274 4.98679 16.2274C4.94256 15.2542 4.93371 14.9619 4.93371 12.4967C4.93371 10.0314 4.94256 9.74066 4.98679 8.7675C5.02795 7.86742 5.17835 7.37892 5.3047 7.05351C5.47203 6.6227 5.67243 6.31498 5.99553 5.99188C6.31864 5.66877 6.62635 5.46876 7.05716 5.30105C7.38257 5.17412 7.87127 5.0241 8.77134 4.98275C9.62295 4.94429 9.95298 4.93275 11.6735 4.93083V4.93313ZM17.4294 6.46596C17.2103 6.46596 16.9961 6.53094 16.8139 6.65268C16.6317 6.77442 16.4897 6.94746 16.4059 7.1499C16.3221 7.35234 16.3001 7.5751 16.3429 7.79C16.3857 8.0049 16.4912 8.20229 16.6462 8.3572C16.8012 8.51211 16.9986 8.61759 17.2135 8.66029C17.4284 8.70299 17.6512 8.681 17.8536 8.59709C18.056 8.51319 18.229 8.37114 18.3507 8.18891C18.4723 8.00669 18.5372 7.79247 18.5372 7.57336C18.5372 6.96177 18.041 6.46557 17.4294 6.46557V6.46596ZM12.5017 7.7603C9.88355 7.7603 7.76087 9.88298 7.76087 12.5011C7.76087 15.1192 9.88355 17.2409 12.5017 17.2409C15.1198 17.2409 17.2419 15.1192 17.2419 12.5011C17.2419 9.88298 15.1198 7.7603 12.5017 7.7603ZM12.5017 9.4239C14.201 9.4239 15.5788 10.8015 15.5788 12.5011C15.5788 14.2005 14.201 15.5783 12.5017 15.5783C10.8021 15.5783 9.42447 14.2005 9.42447 12.5011C9.42447 10.8015 10.8021 9.4239 12.5017 9.4239Z" fill="white"/>
</g>
<rect x="0.5" y="0.5" width="24.0067" height="24" rx="3.5" stroke="white"/>
<defs>
<radialGradient id="paint0_radial_83_1512" cx="0" cy="0" r="1" gradientUnits="userSpaceOnUse" gradientTransform="translate(6.64247 26.9255) rotate(-90) scale(24.7768 23.0507)">
<stop stop-color="#FFDD55"/>
<stop offset="0.1" stop-color="#FFDD55"/>
<stop offset="0.5" stop-color="#FF543E"/>
<stop offset="1" stop-color="#C837AB"/>
</radialGradient>
<radialGradient id="paint1_radial_83_1512" cx="0" cy="0" r="1" gradientUnits="userSpaceOnUse" gradientTransform="translate(-4.18877 1.80096) rotate(78.6776) scale(11.0755 45.665)">
<stop stop-color="#3771C8"/>
<stop offset="0.128" stop-color="#3771C8"/>
<stop offset="1" stop-color="#6600FF" stop-opacity="0"/>
</radialGradient>
<clipPath id="clip0_83_1512">
<rect width="25.0067" height="25" rx="4" fill="white"/>
</clipPath>
</defs>
</svg>
