<svg width="13" height="16" viewBox="0 0 13 16" fill="none" xmlns="http://www.w3.org/2000/svg">
<path d="M5.80713 14.9709C5.33838 14.2874 4.80127 13.5159 4.1958 12.6565C3.60986 11.7971 3.18994 11.1917 2.93604 10.8401C2.68213 10.4885 2.38916 10.0588 2.05713 9.55103C1.7251 9.02368 1.50049 8.65259 1.3833 8.43774C1.28564 8.2229 1.16846 7.94946 1.03174 7.61743C0.914551 7.2854 0.836426 7.0022 0.797363 6.76782C0.777832 6.51392 0.768066 6.22095 0.768066 5.88892C0.768066 4.32642 1.31494 2.99829 2.40869 1.90454C3.50244 0.810791 4.83057 0.263916 6.39307 0.263916C7.95557 0.263916 9.28369 0.810791 10.3774 1.90454C11.4712 2.99829 12.0181 4.32642 12.0181 5.88892C12.0181 6.22095 11.9985 6.51392 11.9595 6.76782C11.9399 7.0022 11.8618 7.2854 11.7251 7.61743C11.6079 7.94946 11.4907 8.2229 11.3735 8.43774C11.2759 8.65259 11.061 9.02368 10.729 9.55103C10.397 10.0588 10.104 10.4885 9.8501 10.8401C9.59619 11.1917 9.1665 11.7971 8.56104 12.6565C7.9751 13.5159 7.44775 14.2874 6.979 14.9709C6.84229 15.1663 6.64697 15.2639 6.39307 15.2639C6.13916 15.2639 5.94385 15.1663 5.80713 14.9709ZM4.72314 7.55884C5.19189 8.00806 5.74854 8.23267 6.39307 8.23267C7.0376 8.23267 7.58447 8.00806 8.03369 7.55884C8.50244 7.09009 8.73682 6.53345 8.73682 5.88892C8.73682 5.24438 8.50244 4.69751 8.03369 4.24829C7.58447 3.77954 7.0376 3.54517 6.39307 3.54517C5.74854 3.54517 5.19189 3.77954 4.72314 4.24829C4.27393 4.69751 4.04932 5.24438 4.04932 5.88892C4.04932 6.53345 4.27393 7.09009 4.72314 7.55884Z" fill="#1878BC"/>
<a href="https://www.figma.com/design/Nx4sNsAeWJfmVVOXuDSmxJ?node-id=2-1452">
<rect fill="black" fill-opacity="0" width="11.25" height="15"/>
</a>
</svg>
