<svg width="51" height="51" viewBox="0 0 51 51" fill="none" xmlns="http://www.w3.org/2000/svg">
<rect x="0.410645" y="0.888916" width="50" height="50" rx="10" fill="#F9D8E3"/>
<g clip-path="url(#clip0_83_1304)">
<path d="M36.2898 35.9847C36.7606 36.1084 36.834 36.2032 36.8348 36.6757C36.8348 37.0962 36.8348 37.5158 36.8348 37.9776C37.4276 37.9776 37.999 37.9776 38.5712 37.9776C39.1904 37.9776 39.3017 38.0897 39.3017 38.7147C39.3017 39.2597 39.305 39.8055 39.3009 40.3505C39.2984 40.7108 39.1352 40.8733 38.7749 40.8873C38.7031 40.8898 38.6306 40.8881 38.5588 40.8881C29.4232 40.8881 20.2867 40.8881 11.1511 40.8881C11.0687 40.8881 10.9862 40.8906 10.9046 40.8856C10.5847 40.8667 10.4181 40.7001 10.4156 40.3761C10.4107 39.7486 10.4099 39.1212 10.4156 38.4937C10.4189 38.159 10.5946 37.9825 10.9334 37.9792C11.5691 37.9726 12.2057 37.9776 12.8809 37.9776C12.8809 37.5266 12.8809 37.0986 12.8809 36.6699C12.8818 36.1999 12.9535 36.1084 13.4268 35.9822V23.4356C12.9065 23.2451 12.8818 23.2088 12.8801 22.663C12.8801 22.2821 12.8777 21.902 12.8752 21.5211C12.8752 21.5021 12.8628 21.484 12.8422 21.4271C12.2733 21.4271 11.6912 21.4271 11.1082 21.4271C10.5484 21.4271 10.414 21.2943 10.414 20.7435C10.414 20.2084 10.414 19.6733 10.414 19.139C10.414 18.6608 10.555 18.5215 11.0373 18.5124C11.128 18.5108 11.2187 18.5033 11.349 18.4967C11.349 17.9822 11.349 17.4818 11.349 16.9813C11.349 16.5294 11.4174 16.4272 11.8231 16.2582C16.0471 14.497 20.2719 12.7358 24.4934 10.9681C24.7507 10.8601 24.9774 10.8642 25.2314 10.9706C29.4521 12.7367 33.6744 14.4987 37.8984 16.2549C38.2257 16.3909 38.3832 16.5946 38.37 16.9565C38.3519 17.4595 38.3659 17.9625 38.3659 18.5149C38.5267 18.5149 38.6669 18.5091 38.8062 18.5157C39.1286 18.533 39.2968 18.6996 39.3001 19.0211C39.3058 19.6486 39.3058 20.276 39.3001 20.9035C39.2968 21.2498 39.1162 21.4229 38.7567 21.4262C38.1301 21.4312 37.5043 21.4279 36.8348 21.4279C36.8348 21.8641 36.8348 22.2821 36.8348 22.7001C36.8348 23.2047 36.7787 23.2798 36.2898 23.4224V35.9839V35.9847ZM12.3195 18.4679H37.3954C37.3954 18.087 37.3831 17.7275 37.4004 17.3705C37.4103 17.1643 37.3451 17.0646 37.1497 16.9829C33.122 15.3092 29.0983 13.6255 25.0698 11.9534C24.9477 11.9023 24.7663 11.908 24.6427 11.9592C22.4527 12.8636 20.267 13.7797 18.0803 14.6924C16.2433 15.4592 14.4055 16.2219 12.5718 16.9953C12.4703 17.0382 12.3368 17.1561 12.331 17.2468C12.3046 17.645 12.3195 18.0449 12.3195 18.4687V18.4679ZM26.1416 35.9847V23.4232C25.6395 23.2822 25.5851 23.2088 25.5843 22.682C25.5843 22.2738 25.5843 21.8657 25.5843 21.4535H24.1587C24.1463 21.498 24.1356 21.5169 24.1356 21.5367C24.1331 21.8962 24.1315 22.2565 24.1306 22.616C24.1298 23.2171 24.1174 23.2352 23.5749 23.4414V35.9839C24.0515 36.1018 24.1282 36.1958 24.1306 36.6625C24.1323 37.0912 24.1306 37.52 24.1306 37.952H25.5851C25.5851 37.5068 25.5834 37.0863 25.5851 36.6666C25.5867 36.1983 25.6651 36.1018 26.1416 35.9847ZM19.1877 37.9619C19.1877 37.5587 19.1877 37.1704 19.1877 36.7828C19.1877 36.2032 19.2495 36.1208 19.8036 35.9649V23.4282C19.2709 23.3004 19.1877 23.1957 19.1877 22.6663C19.1877 22.2598 19.1877 21.8533 19.1877 21.451H17.8157C17.8157 21.8632 17.8157 22.2524 17.8157 22.6424C17.8157 23.2088 17.7489 23.2962 17.2031 23.429V35.9699C17.7472 36.1051 17.8157 36.1941 17.8157 36.754C17.8157 37.1522 17.8157 37.5505 17.8157 37.9611H19.1877V37.9619ZM29.9121 23.4216V35.9806C30.4258 36.087 30.5264 36.2098 30.5272 36.7103C30.5272 37.1275 30.5272 37.5439 30.5272 37.9561H31.8992C31.8992 37.5752 31.8992 37.2165 31.8992 36.8579C31.8992 36.1768 31.9058 36.1669 32.5044 35.9575V23.4191C31.999 23.3177 31.9 23.2006 31.8992 22.715C31.8992 22.2961 31.8992 21.8773 31.8992 21.4452H30.5272C30.5272 21.8698 30.5272 22.278 30.5272 22.6869C30.5272 23.1932 30.4299 23.3119 29.9121 23.4216ZM11.3886 20.4327H38.3247V19.4771H11.3886V20.4327ZM38.3247 38.9703H11.391V39.9267H38.3255V38.9703H38.3247ZM22.583 35.988V23.4183H20.7971V35.988H22.583ZM27.1311 23.4191V35.9773H28.9178V23.4191H27.1311ZM16.198 35.993V23.4232H14.4319V35.993H16.198ZM33.5169 23.4133V35.9831H35.2822V23.4133H33.5169ZM16.832 21.4551H13.8481V22.4H16.832V21.4551ZM20.1705 22.3959H23.1643V21.4526H20.1705V22.3959ZM29.5444 21.4584H26.5506V22.4016H29.5444V21.4584ZM32.8812 22.4H35.8569V21.4526H32.8812V22.4ZM13.8506 37.9611H16.8287V37.0005H13.8506V37.9611ZM20.182 36.9997V37.9504H23.1651V36.9997H20.182ZM29.5444 37.0129H26.5506V37.957H29.5444V37.0129ZM32.882 37.9767C33.4122 37.9767 33.9036 37.9767 34.3959 37.9767C34.8881 37.9767 35.3721 37.9767 35.8577 37.9767V36.9857H32.8829V37.9767H32.882Z" fill="url(#paint0_linear_83_1304)"/>
<path d="M22.8692 15.5195C22.8634 14.4064 23.7432 13.5233 24.8571 13.5242C25.9619 13.5242 26.8343 14.385 26.8466 15.4865C26.859 16.6004 25.9883 17.4901 24.8744 17.5016C23.7671 17.5132 22.8749 16.6309 22.8692 15.5195ZM25.8993 15.5253C25.91 14.9671 25.4367 14.4814 24.8719 14.4707C24.3129 14.46 23.8264 14.9316 23.8157 15.4964C23.805 16.0521 24.2816 16.5427 24.8431 16.5534C25.3988 16.5642 25.8885 16.0876 25.8993 15.5253Z" fill="url(#paint1_linear_83_1304)"/>
</g>
<defs>
<linearGradient id="paint0_linear_83_1304" x1="21.4106" y1="16.3889" x2="37.4106" y2="41.8889" gradientUnits="userSpaceOnUse">
<stop stop-color="#EB2428"/>
<stop offset="1" stop-color="#851417"/>
</linearGradient>
<linearGradient id="paint1_linear_83_1304" x1="24.858" y1="13.5242" x2="24.858" y2="17.5017" gradientUnits="userSpaceOnUse">
<stop stop-color="#EB2428"/>
<stop offset="1" stop-color="#851417"/>
</linearGradient>
<clipPath id="clip0_83_1304">
<rect width="28.8935" height="30" fill="white" transform="translate(10.4106 10.8889)"/>
</clipPath>
</defs>
</svg>
