<svg width="15" height="16" viewBox="0 0 15 16" fill="none" xmlns="http://www.w3.org/2000/svg">
<path d="M2.34375 2.63696C3.76953 1.21118 5.48828 0.498291 7.5 0.498291C9.51172 0.498291 11.2207 1.21118 12.627 2.63696C14.0527 4.04321 14.7656 5.7522 14.7656 7.76392C14.7656 9.77563 14.0527 11.4944 12.627 12.9202C11.2207 14.3264 9.51172 15.0295 7.5 15.0295C5.48828 15.0295 3.76953 14.3264 2.34375 12.9202C0.9375 11.4944 0.234375 9.77563 0.234375 7.76392C0.234375 5.7522 0.9375 4.04321 2.34375 2.63696ZM9.16992 10.7522C9.36523 10.8889 9.53125 10.8694 9.66797 10.6936L10.4883 9.55103C10.625 9.35571 10.6055 9.1897 10.4297 9.05298L8.55469 7.70532V3.66235C8.55469 3.42798 8.4375 3.31079 8.20312 3.31079H6.79688C6.5625 3.31079 6.44531 3.42798 6.44531 3.66235V8.58423C6.44531 8.70142 6.49414 8.79907 6.5918 8.8772L9.16992 10.7522Z" fill="#1878BC"/>
</svg>
