<svg width="276" height="75" viewBox="0 0 276 75" fill="none" xmlns="http://www.w3.org/2000/svg">
<g clip-path="url(#clip0_2_100)">
<path d="M55.01 40.35C55.09 40.07 55.17 39.66 55.01 39.47C54.52 38.87 53.92 38.34 53.26 37.69C50.65 44.91 48.1 51.99 45.48 59.27C45.28 58.97 45.2 58.87 45.15 58.77C43.76 55.74 42.37 52.7 40.99 49.67C36.61 40.04 32.22 30.41 27.85 20.78C27.42 19.84 26.9 19.04 25.95 18.37C19.41 13.78 12.92 9.13 6.42 4.5C4.31 2.99 2.2 1.5 0.09 0C0.06 0.02 0.03 0.04 0 0.07C15.11 24.8 30.21 49.52 45.35 74.31C45.44 74.16 45.49 74.1 45.51 74.03C47.18 68.09 48.85 62.14 50.53 56.2C52.02 50.92 53.52 45.64 55.01 40.35Z" fill="#1878BC"/>
<path d="M56.6301 40.74C53.3201 51.97 50.0701 63.01 46.8101 74.05C46.9901 74.05 47.0301 73.96 47.0901 73.89C49.4801 71.04 51.8901 68.21 54.2601 65.34C54.6701 64.85 55.0601 64.25 55.1501 63.66C56.0501 58.2 56.8701 52.73 57.7301 47.27C57.7701 47.03 57.8301 46.8 57.9301 46.37C59.0501 47.93 60.0201 49.28 61.0001 50.63C61.0901 50.63 61.1701 50.61 61.2601 50.6C61.2601 49.92 61.5201 49.12 61.2201 48.57C59.8101 45.98 58.2401 43.45 56.6401 40.74H56.6301Z" fill="#1878BC"/>
<path d="M63.6802 34.19C62.4302 33.11 60.6902 33.1 59.4502 34.18C57.7302 35.66 57.7502 38.4 59.4802 39.86C60.7002 40.89 62.3502 40.91 63.5902 39.9C64.5402 39.13 64.9702 38.16 64.9502 37.03C64.9502 35.85 64.5402 34.93 63.6802 34.19Z" fill="#EB2428"/>
<path d="M83.3899 43.9L83.5199 44.57H83.5899L83.7199 43.94L86.6199 30.96H90.1899L85.3299 48.34H81.7999L76.9399 30.96H80.5099L83.3899 43.9Z" fill="#1878BC"/>
<path d="M95.1798 48.34H91.7998V30.96H95.1798V48.34Z" fill="#1878BC"/>
<path d="M105.73 43.8C105.73 43.12 105.55 42.59 105.2 42.19C104.85 41.8 104.23 41.41 103.35 41.03C101.54 40.4 100.19 39.69 99.28 38.89C98.37 38.09 97.93 36.97 97.93 35.53C97.93 34.09 98.46 32.94 99.51 32.05C100.56 31.15 101.9 30.71 103.53 30.71C105.16 30.71 106.53 31.21 107.57 32.21C108.6 33.21 109.11 34.47 109.07 35.99L109.05 36.06H105.75C105.75 35.26 105.55 34.62 105.15 34.13C104.75 33.64 104.19 33.39 103.47 33.39C102.79 33.39 102.27 33.6 101.89 34.01C101.51 34.42 101.32 34.94 101.32 35.56C101.32 36.13 101.53 36.6 101.95 36.97C102.37 37.34 103.1 37.75 104.15 38.21C105.8 38.77 107.04 39.47 107.87 40.33C108.7 41.19 109.12 42.34 109.12 43.8C109.12 45.26 108.62 46.48 107.62 47.33C106.62 48.18 105.28 48.61 103.62 48.61C101.96 48.61 100.53 48.13 99.32 47.16C98.11 46.19 97.52 44.81 97.56 43L97.58 42.93H100.89C100.89 44 101.12 44.78 101.57 45.25C102.02 45.72 102.71 45.95 103.62 45.95C104.34 45.95 104.87 45.76 105.21 45.38C105.56 45 105.73 44.48 105.73 43.83V43.8Z" fill="#1878BC"/>
<path d="M123.43 48.34H120.04V41.14H114.64V48.34H111.24V30.96H114.64V38.43H120.04V30.96H123.43V48.34Z" fill="#1878BC"/>
<path d="M137.72 42.05H137.79L139.66 30.96H142.96L139.6 48.34H136.44L133.99 37.69H133.92L131.5 48.34H128.35L124.99 30.96H128.29L130.16 42.05H130.23L132.74 30.96H135.18L137.72 42.05Z" fill="#1878BC"/>
<path d="M151.85 44.63H147.27L146.34 48.34H142.91L147.8 30.96H151.33L156.21 48.34H152.78L151.84 44.63H151.85ZM147.96 41.92H151.16L149.6 35.77H149.53L147.97 41.92H147.96Z" fill="#1878BC"/>
<path d="M162.45 41.12H160.97V48.34H157.57V30.96H160.97V38.03H162.07L165.46 30.96H169.63L164.89 38.9L170.02 48.34H165.89L162.45 41.12Z" fill="#1878BC"/>
<path d="M178.96 44.63H174.38L173.45 48.34H170.02L174.92 30.96H178.45L183.33 48.34H179.9L178.96 44.63ZM175.07 41.92H178.27L176.71 35.77H176.64L175.08 41.92H175.07Z" fill="#1878BC"/>
<path d="M188.08 41.43V48.34H184.69V30.97H190.36C192.07 30.97 193.41 31.42 194.39 32.32C195.36 33.22 195.85 34.48 195.85 36.09C195.85 37 195.65 37.78 195.24 38.44C194.83 39.1 194.24 39.62 193.46 40.01C194.35 40.31 194.99 40.81 195.39 41.51C195.78 42.21 195.98 43.09 195.98 44.14V45.37C195.98 45.85 196.04 46.36 196.15 46.9C196.26 47.45 196.46 47.84 196.73 48.09V48.34H193.22C192.94 48.09 192.77 47.67 192.69 47.1C192.61 46.53 192.58 45.94 192.58 45.35V44.17C192.58 43.3 192.4 42.63 192.05 42.15C191.7 41.67 191.19 41.43 190.53 41.43H188.07H188.08ZM188.08 38.72H190.35C191.04 38.72 191.57 38.51 191.93 38.09C192.29 37.67 192.47 37.07 192.47 36.29C192.47 35.51 192.29 34.86 191.93 34.39C191.57 33.92 191.05 33.68 190.37 33.68H188.09V38.72H188.08Z" fill="#1878BC"/>
<path d="M202.9 30.96L206.02 43.72H206.09L209.24 30.96H213.67V48.34H210.29V43.29L210.58 36.53H210.51L207.19 48.34H204.93L201.65 36.62H201.58L201.88 43.29V48.34H198.5V30.96H202.9Z" fill="#1878BC"/>
<path d="M224.27 44.63H219.69L218.76 48.34H215.33L220.23 30.96H223.76L228.64 48.34H225.21L224.27 44.63ZM220.38 41.92H223.58L222.02 35.77H221.95L220.39 41.92H220.38Z" fill="#1878BC"/>
<path d="M88.8002 71.72C88.3302 72.47 87.6302 73.13 86.6902 73.7C85.7502 74.27 84.5602 74.55 83.1202 74.55C81.2602 74.55 79.7602 74 78.6402 72.91C77.5102 71.82 76.9502 70.27 76.9502 68.25V62.95C76.9502 60.95 77.4902 59.4 78.5802 58.31C79.6702 57.21 81.1102 56.66 82.9002 56.66C84.8302 56.66 86.2702 57.13 87.2302 58.07C88.1902 59.01 88.6902 60.36 88.7302 62.12L88.7102 62.19H85.5202C85.5002 61.21 85.2802 60.49 84.8702 60.04C84.4602 59.59 83.8302 59.36 82.9902 59.36C82.1502 59.36 81.5102 59.65 81.0402 60.24C80.5702 60.83 80.3402 61.72 80.3402 62.91V68.24C80.3402 69.46 80.5802 70.36 81.0502 70.95C81.5202 71.54 82.2102 71.83 83.1202 71.83C83.8002 71.83 84.3002 71.74 84.6202 71.56C84.9402 71.38 85.2102 71.11 85.4102 70.75V67.63H83.1202V65.24H88.8002V71.71V71.72Z" fill="#1878BC"/>
<path d="M94.7704 67.39V74.3H91.3804V56.93H97.0504C98.7604 56.93 100.1 57.38 101.08 58.28C102.06 59.18 102.54 60.44 102.54 62.05C102.54 62.96 102.34 63.74 101.93 64.4C101.52 65.06 100.93 65.58 100.15 65.97C101.04 66.27 101.68 66.77 102.08 67.47C102.47 68.17 102.67 69.05 102.67 70.1V71.33C102.67 71.81 102.73 72.32 102.84 72.86C102.95 73.41 103.15 73.8 103.43 74.05V74.3H99.9204C99.6404 74.05 99.4704 73.63 99.3904 73.06C99.3204 72.49 99.2804 71.9 99.2804 71.31V70.13C99.2804 69.26 99.1004 68.59 98.7504 68.11C98.4004 67.63 97.8904 67.39 97.2304 67.39H94.7704ZM94.7704 64.68H97.0404C97.7304 64.68 98.2604 64.47 98.6204 64.05C98.9804 63.63 99.1604 63.03 99.1604 62.25C99.1604 61.47 98.9804 60.82 98.6204 60.35C98.2604 59.88 97.7404 59.64 97.0604 59.64H94.7804V64.68H94.7704Z" fill="#1878BC"/>
<path d="M116.95 68.06C116.95 70.1 116.4 71.69 115.29 72.84C114.18 73.99 112.71 74.56 110.87 74.56C109.03 74.56 107.56 73.99 106.46 72.84C105.36 71.69 104.81 70.1 104.81 68.06V63.19C104.81 61.16 105.36 59.57 106.46 58.41C107.56 57.25 109.02 56.67 110.85 56.67C112.68 56.67 114.15 57.25 115.27 58.41C116.38 59.57 116.94 61.16 116.94 63.19V68.06H116.95ZM113.57 63.15C113.57 61.9 113.34 60.96 112.88 60.33C112.42 59.7 111.75 59.38 110.86 59.38C109.97 59.38 109.3 59.69 108.85 60.33C108.4 60.96 108.18 61.9 108.18 63.16V68.07C108.18 69.33 108.41 70.28 108.86 70.91C109.31 71.54 109.98 71.86 110.87 71.86C111.76 71.86 112.41 71.55 112.88 70.91C113.34 70.28 113.57 69.33 113.57 68.07V63.16V63.15Z" fill="#1878BC"/>
<path d="M130.76 56.92V68.75C130.76 70.6 130.22 72.04 129.13 73.04C128.04 74.05 126.62 74.55 124.86 74.55C123.1 74.55 121.68 74.04 120.59 73.03C119.5 72.02 118.96 70.59 118.96 68.74V56.91H122.35V68.74C122.35 69.8 122.57 70.58 123.01 71.08C123.45 71.58 124.06 71.83 124.86 71.83C125.66 71.83 126.3 71.59 126.73 71.11C127.16 70.63 127.37 69.84 127.37 68.73V56.9H130.75L130.76 56.92Z" fill="#1878BC"/>
<path d="M136.6 68.06V74.3H133.2V56.92H139.24C140.97 56.92 142.34 57.43 143.35 58.46C144.35 59.49 144.85 60.83 144.85 62.49C144.85 64.15 144.35 65.51 143.34 66.53C142.33 67.55 140.97 68.06 139.24 68.06H136.6ZM136.6 65.35H139.24C139.96 65.35 140.52 65.08 140.9 64.55C141.28 64.02 141.47 63.34 141.47 62.52C141.47 61.7 141.28 61 140.9 60.46C140.52 59.91 139.97 59.64 139.23 59.64H136.59V65.36L136.6 65.35Z" fill="#1878BC"/>
<path d="M164.1 68.06C164.1 70.1 163.55 71.69 162.44 72.84C161.33 73.99 159.86 74.56 158.02 74.56C156.18 74.56 154.71 73.99 153.61 72.84C152.51 71.69 151.96 70.1 151.96 68.06V63.19C151.96 61.16 152.51 59.57 153.61 58.41C154.71 57.25 156.17 56.67 158 56.67C159.83 56.67 161.3 57.25 162.42 58.41C163.53 59.57 164.09 61.16 164.09 63.19V68.06H164.1ZM160.72 63.15C160.72 61.9 160.49 60.96 160.03 60.33C159.57 59.7 158.9 59.38 158.01 59.38C157.12 59.38 156.45 59.69 156 60.33C155.55 60.96 155.33 61.9 155.33 63.16V68.07C155.33 69.33 155.56 70.28 156.01 70.91C156.46 71.54 157.13 71.86 158.02 71.86C158.91 71.86 159.56 71.55 160.03 70.91C160.49 70.28 160.72 69.33 160.72 68.07V63.16V63.15Z" fill="#1878BC"/>
<path d="M175.61 67.08H169.71V74.3H166.31V56.92H176.65V59.63H169.71V64.37H175.61V67.08Z" fill="#1878BC"/>
<path d="M191.52 69.77C191.52 69.09 191.34 68.56 190.99 68.16C190.64 67.77 190.02 67.38 189.14 67C187.33 66.37 185.98 65.66 185.07 64.86C184.17 64.06 183.72 62.94 183.72 61.5C183.72 60.06 184.25 58.91 185.3 58.02C186.35 57.12 187.69 56.68 189.32 56.68C190.95 56.68 192.32 57.18 193.36 58.18C194.39 59.18 194.9 60.44 194.86 61.96L194.84 62.03H191.54C191.54 61.23 191.34 60.59 190.94 60.1C190.54 59.61 189.98 59.36 189.26 59.36C188.58 59.36 188.06 59.57 187.68 59.98C187.3 60.39 187.11 60.91 187.11 61.53C187.11 62.1 187.32 62.57 187.74 62.94C188.16 63.31 188.89 63.72 189.94 64.18C191.59 64.74 192.83 65.44 193.66 66.3C194.49 67.16 194.91 68.31 194.91 69.77C194.91 71.23 194.41 72.45 193.41 73.3C192.41 74.15 191.07 74.58 189.41 74.58C187.75 74.58 186.32 74.1 185.11 73.13C183.9 72.16 183.31 70.78 183.35 68.97L183.37 68.9H186.68C186.68 69.97 186.91 70.75 187.36 71.22C187.81 71.69 188.5 71.92 189.41 71.92C190.13 71.92 190.66 71.73 191 71.35C191.35 70.97 191.52 70.45 191.52 69.8V69.77Z" fill="#1878BC"/>
<path d="M207.94 68.7L207.98 68.77C208 70.68 207.54 72.12 206.62 73.09C205.7 74.06 204.34 74.55 202.54 74.55C200.74 74.55 199.31 74 198.23 72.9C197.16 71.8 196.62 70.24 196.62 68.21V63.02C196.62 61.01 197.14 59.44 198.18 58.33C199.22 57.22 200.61 56.66 202.35 56.66C204.2 56.66 205.59 57.15 206.53 58.14C207.47 59.13 207.96 60.59 207.99 62.52L207.95 62.59H204.68C204.73 61.45 204.57 60.63 204.21 60.12C203.85 59.62 203.23 59.37 202.34 59.37C201.58 59.37 200.99 59.67 200.58 60.27C200.17 60.87 199.97 61.77 199.97 62.98V68.2C199.97 69.43 200.19 70.34 200.62 70.94C201.05 71.54 201.69 71.84 202.52 71.84C203.35 71.84 203.91 71.6 204.23 71.13C204.55 70.66 204.69 69.85 204.65 68.7H207.92H207.94Z" fill="#1878BC"/>
<path d="M222.22 74.3H218.83V67.1H213.43V74.3H210.03V56.92H213.43V64.39H218.83V56.92H222.22V74.3Z" fill="#1878BC"/>
<path d="M236.56 68.06C236.56 70.1 236.01 71.69 234.9 72.84C233.79 73.99 232.32 74.56 230.48 74.56C228.64 74.56 227.17 73.99 226.07 72.84C224.97 71.69 224.42 70.1 224.42 68.06V63.19C224.42 61.16 224.97 59.57 226.07 58.41C227.17 57.25 228.63 56.67 230.46 56.67C232.29 56.67 233.76 57.25 234.88 58.41C235.99 59.57 236.55 61.16 236.55 63.19V68.06H236.56ZM233.18 63.15C233.18 61.9 232.95 60.96 232.49 60.33C232.03 59.7 231.36 59.38 230.47 59.38C229.58 59.38 228.91 59.69 228.46 60.33C228.01 60.96 227.79 61.9 227.79 63.16V68.07C227.79 69.33 228.02 70.28 228.47 70.91C228.92 71.54 229.59 71.86 230.48 71.86C231.37 71.86 232.02 71.55 232.49 70.91C232.95 70.28 233.18 69.33 233.18 68.07V63.16V63.15Z" fill="#1878BC"/>
<path d="M250.48 68.06C250.48 70.1 249.93 71.69 248.82 72.84C247.71 73.99 246.24 74.56 244.4 74.56C242.56 74.56 241.09 73.99 239.99 72.84C238.89 71.69 238.34 70.1 238.34 68.06V63.19C238.34 61.16 238.89 59.57 239.99 58.41C241.09 57.25 242.55 56.67 244.38 56.67C246.21 56.67 247.68 57.25 248.8 58.41C249.91 59.57 250.47 61.16 250.47 63.19V68.06H250.48ZM247.1 63.15C247.1 61.9 246.87 60.96 246.41 60.33C245.95 59.7 245.28 59.38 244.39 59.38C243.5 59.38 242.83 59.69 242.38 60.33C241.93 60.96 241.71 61.9 241.71 63.16V68.07C241.71 69.33 241.94 70.28 242.39 70.91C242.84 71.54 243.51 71.86 244.4 71.86C245.29 71.86 245.94 71.55 246.41 70.91C246.87 70.28 247.1 69.33 247.1 68.07V63.16V63.15Z" fill="#1878BC"/>
<path d="M256.09 71.59H262.44V74.3H252.69V56.92H256.09V71.59Z" fill="#1878BC"/>
<path d="M271.86 69.77C271.86 69.09 271.69 68.56 271.33 68.16C270.98 67.77 270.36 67.38 269.48 67C267.67 66.37 266.32 65.66 265.41 64.86C264.51 64.06 264.06 62.94 264.06 61.5C264.06 60.06 264.59 58.91 265.64 58.02C266.69 57.12 268.03 56.68 269.66 56.68C271.29 56.68 272.66 57.18 273.7 58.18C274.73 59.18 275.24 60.44 275.2 61.96L275.18 62.03H271.88C271.88 61.23 271.68 60.59 271.28 60.1C270.88 59.61 270.32 59.36 269.6 59.36C268.92 59.36 268.4 59.57 268.02 59.98C267.64 60.39 267.45 60.91 267.45 61.53C267.45 62.1 267.66 62.57 268.08 62.94C268.5 63.31 269.23 63.72 270.28 64.18C271.93 64.74 273.17 65.44 274 66.3C274.83 67.16 275.25 68.31 275.25 69.77C275.25 71.23 274.75 72.45 273.75 73.3C272.75 74.15 271.41 74.58 269.75 74.58C268.09 74.58 266.66 74.1 265.45 73.13C264.24 72.16 263.65 70.78 263.69 68.97L263.71 68.9H267.02C267.02 69.97 267.25 70.75 267.7 71.22C268.15 71.69 268.84 71.92 269.75 71.92C270.47 71.92 271 71.73 271.34 71.35C271.69 70.97 271.86 70.45 271.86 69.8V69.77Z" fill="#1878BC"/>
</g>
<defs>
<clipPath id="clip0_2_100">
<rect width="275.25" height="74.55" fill="white"/>
</clipPath>
</defs>
</svg>
