<svg width="51" height="51" viewBox="0 0 51 51" fill="none" xmlns="http://www.w3.org/2000/svg">
<rect x="0.589355" y="0.888916" width="50.3854" height="50" rx="10" fill="#E4D3FF"/>
<g clip-path="url(#clip0_83_1322)">
<path d="M17.7868 21.824C16.6122 21.1888 15.4554 20.5644 14.2987 19.94C13.3889 19.4488 13.3459 18.4746 14.2182 17.928C17.8449 15.6539 21.4753 13.3851 25.1012 11.1092C25.5565 10.8229 25.9913 10.8131 26.4467 11.0985C30.1012 13.3905 33.7583 15.6771 37.4111 17.9718C38.1858 18.4585 38.1607 19.4837 37.3395 19.8881C36.9083 20.1001 36.8036 20.3595 36.8099 20.814C36.8358 22.8895 36.8215 24.965 36.8215 27.0414C36.8215 27.1738 36.8215 27.3053 36.8215 27.4887C37.0138 27.4887 37.1767 27.4816 37.3395 27.4905C37.6383 27.5066 37.8405 27.6694 37.8449 27.9646C37.861 28.9353 37.861 29.906 37.8467 30.8766C37.8423 31.1924 37.6258 31.366 37.3198 31.3713C36.6059 31.3839 35.8911 31.3839 35.1772 31.3713C34.8569 31.366 34.6413 31.1396 34.6378 30.8059C34.6279 29.8908 34.627 28.9756 34.6378 28.0604C34.6413 27.6882 34.8516 27.5012 35.2327 27.486C35.3758 27.4807 35.5198 27.4851 35.6934 27.4851V20.8006C35.0439 21.1495 34.4132 21.4885 33.7485 21.8455C34.4875 22.6802 34.6458 23.6115 34.1726 24.6018C33.6984 25.5939 32.8861 26.0788 31.7732 26.0269C31.6748 26.3687 31.5916 26.7023 31.4816 27.0262C31.155 27.9843 30.612 28.8065 29.8614 29.4837C29.7048 29.625 29.6395 29.7664 29.6494 29.9731C29.6646 30.2835 29.653 30.5957 29.653 30.9589C30.1674 30.7227 30.4107 31.026 30.646 31.3821C30.9412 31.8285 31.1792 32.3688 31.588 32.6667C31.996 32.9637 32.5855 33.0121 33.0963 33.1677C33.8415 33.3941 34.6002 33.5828 35.3293 33.8521C36.775 34.3853 37.6025 35.4463 37.7027 36.9833C37.7743 38.0836 37.7322 39.1921 37.726 40.2969C37.7233 40.7263 37.5211 40.89 37.055 40.89C32.3896 40.89 27.7242 40.89 23.0588 40.89C20.213 40.89 17.3663 40.89 14.5206 40.89C13.9784 40.89 13.8013 40.7138 13.8004 40.1708C13.7995 39.2001 13.7959 38.2286 13.8004 37.2579C13.8093 35.6234 14.8167 34.2681 16.3867 33.7868C17.5041 33.4442 18.6277 33.1248 19.7433 32.7759C19.9061 32.7249 20.0716 32.5961 20.1754 32.4574C20.4429 32.1013 20.6916 31.7292 20.9197 31.3463C21.147 30.9661 21.4198 30.7478 21.8967 30.9652C21.8967 30.5778 21.9065 30.2209 21.8904 29.8657C21.8859 29.7691 21.8278 29.6519 21.7553 29.5857C20.7498 28.6723 20.0958 27.5612 19.8122 26.2291C19.7952 26.1477 19.6646 26.0332 19.5832 26.0305C18.5266 25.9875 17.7331 25.5134 17.3019 24.5508C16.8734 23.5953 17.0693 22.7007 17.7465 21.9081C17.7608 21.892 17.7662 21.8687 17.7859 21.8258L17.7868 21.824ZM20.8079 21.6898C20.7936 21.7498 20.7668 21.8106 20.7668 21.8723C20.7659 22.9772 20.7292 24.0838 20.7775 25.1869C20.8938 27.868 22.972 29.9113 25.62 29.9954C28.405 30.0831 30.7247 27.8564 30.7453 25.0697C30.7524 24.0427 30.748 23.0156 30.7462 21.9895C30.7462 21.8938 30.7319 21.7972 30.7238 21.6898H20.8079ZM32.4057 21.1575C32.4388 21.1933 32.4719 21.2291 32.505 21.2649C33.9587 20.525 35.3785 19.7208 36.8528 18.9335C36.7535 18.8619 36.7034 18.8208 36.6488 18.7868C33.099 16.5565 29.5474 14.328 26.002 12.0906C25.8052 11.9663 25.6845 12.0307 25.527 12.1291C22.6276 13.9469 19.7254 15.7612 16.8242 17.5764C16.1291 18.0112 15.434 18.4451 14.6941 18.9067C16.1613 19.702 17.5819 20.4722 19.0813 21.2846C19.0813 21.0367 19.0813 20.8963 19.0813 20.7558C19.0795 20.3425 19.0983 19.9283 19.0724 19.5168C19.0017 18.42 19.6959 17.7875 20.5843 17.6059C24.0482 16.8956 27.5014 16.7524 30.9645 17.5862C31.9342 17.8197 32.4039 18.3923 32.4066 19.3889C32.4075 19.9784 32.4057 20.568 32.4057 21.1575ZM14.9321 39.8076H22.0863C22.0201 39.6098 21.9629 39.4318 21.902 39.2547C21.3116 37.5406 20.7202 35.8265 20.128 34.1133C20.0797 33.9729 20.069 33.802 19.8238 33.878C18.7297 34.2162 17.6204 34.5105 16.537 34.8782C15.6603 35.1761 15.0511 35.8283 14.9562 36.7435C14.8516 37.7446 14.9321 38.7644 14.9321 39.8076ZM31.5495 33.8315C30.8526 35.8435 30.1709 37.8152 29.483 39.8022H36.6417C36.6417 38.9165 36.6471 38.0496 36.6399 37.1819C36.6318 36.1557 36.0056 35.2164 35.0376 34.8916C33.9006 34.5096 32.7421 34.1903 31.5495 33.8315ZM20.1539 20.5769H31.3205C31.3205 20.1645 31.3241 19.7753 31.3196 19.3871C31.3134 18.8977 31.2024 18.7671 30.7256 18.6499C27.3502 17.8233 23.982 17.9843 20.6174 18.717C20.323 18.7814 20.1674 18.9648 20.1575 19.252C20.1423 19.6859 20.1539 20.1198 20.1539 20.5769ZM22.9684 30.4221C22.9684 30.7988 22.9568 31.1316 22.9765 31.4635C22.9818 31.5503 23.0623 31.6639 23.1411 31.7104C23.9462 32.1872 24.7549 32.6587 25.5726 33.1149C25.6737 33.1713 25.858 33.1758 25.9573 33.1203C26.7651 32.6703 27.564 32.2024 28.3611 31.7337C28.4381 31.688 28.5374 31.5986 28.541 31.5252C28.5597 31.1736 28.549 30.8203 28.549 30.4329C26.6802 31.2953 24.8516 31.3033 22.9684 30.4221ZM26.7455 33.9255C27.6991 34.7208 28.6152 35.4848 29.5581 36.2711C29.9026 35.2728 30.2282 34.3379 30.5449 33.3994C30.5726 33.318 30.5726 33.1955 30.5288 33.1284C30.3132 32.7938 30.0788 32.4708 29.8426 32.1318C28.8058 32.732 27.7966 33.3162 26.7464 33.9246L26.7455 33.9255ZM21.707 32.1371C21.6023 32.2919 21.5308 32.4332 21.4261 32.5424C21.002 32.9888 20.9797 33.4522 21.223 34.0158C21.529 34.7226 21.7437 35.4696 22.013 36.2407C22.9514 35.4579 23.8523 34.7056 24.7898 33.9228C23.7458 33.318 22.7483 32.741 21.707 32.1371ZM22.386 37.3348C22.6204 38.0094 22.8539 38.6812 23.0865 39.354C23.2082 39.7053 23.4736 39.8469 23.8827 39.7789C23.8639 38.5533 24.2862 37.3277 23.9623 36.0314C23.4094 36.4885 22.9129 36.8992 22.386 37.3348ZM29.1806 37.3563C28.6599 36.9314 28.167 36.5297 27.6213 36.0851C27.3681 37.3903 27.709 38.5954 27.7233 39.8102H28.328C28.6125 38.9917 28.8961 38.1758 29.1806 37.3563ZM26.4422 37.35H25.1656C25.0949 38.1704 25.0251 38.9747 24.9536 39.7959H26.6408C26.5737 38.9738 26.5093 38.1767 26.4422 37.35ZM31.8519 24.9292C32.4263 24.9292 32.8771 24.7619 33.15 24.277C33.4309 23.7787 33.4059 23.2697 33.0972 22.7938C32.8127 22.3545 32.3815 22.1953 31.8519 22.2096V24.9292ZM19.6744 22.2006C19.1019 22.2051 18.6492 22.4001 18.3674 22.8823C18.0874 23.3627 18.0981 23.8619 18.4121 24.3289C18.7065 24.7673 19.1368 24.9453 19.6744 24.9364V22.2006ZM25.7694 34.5213C25.5046 34.7405 25.2693 34.9274 25.0457 35.126C24.9875 35.177 24.9213 35.2736 24.9321 35.3372C24.9822 35.6386 25.0582 35.9348 25.1217 36.2228H26.4959C26.5495 35.9795 26.6184 35.7549 26.6426 35.5259C26.6542 35.4132 26.6166 35.2558 26.5406 35.1815C26.3044 34.9498 26.0387 34.7476 25.7703 34.5222L25.7694 34.5213ZM35.7426 28.5792V30.2736H36.758V28.5792H35.7426Z" fill="url(#paint0_linear_83_1322)"/>
</g>
<defs>
<linearGradient id="paint0_linear_83_1322" x1="21.0894" y1="10.8889" x2="37.5894" y2="42.3889" gradientUnits="userSpaceOnUse">
<stop stop-color="#905EDB"/>
<stop offset="1" stop-color="#4D3275"/>
</linearGradient>
<clipPath id="clip0_83_1322">
<rect width="24.3854" height="30" fill="white" transform="translate(13.5894 10.8889)"/>
</clipPath>
</defs>
</svg>
