<svg width="36" height="25" viewBox="0 0 36 25" fill="none" xmlns="http://www.w3.org/2000/svg">
<rect x="10" y="5" width="16" height="16" fill="white"/>
<path d="M34.3407 3.932L34.3406 3.93203L34.3436 3.94169C34.7707 5.32986 34.992 7.45261 35.1036 9.2662C35.1589 10.1652 35.1866 10.9748 35.2005 11.5597C35.2074 11.852 35.2108 12.0878 35.2126 12.2503C35.2134 12.3315 35.2139 12.3943 35.2141 12.4366L35.2143 12.4845L35.2143 12.4964L35.2143 12.4992V12.4999V12.5V12.5002V12.5008L35.2143 12.5038L35.2143 12.5158L35.2141 12.564C35.214 12.6066 35.2136 12.6696 35.213 12.7511C35.2117 12.914 35.2091 13.1504 35.2039 13.4433C35.1935 14.0293 35.1727 14.8405 35.1311 15.7415C35.0477 17.5501 34.882 19.678 34.5604 21.0802C34.1604 22.466 33.1804 23.446 31.7946 23.846C31.1117 24.0018 29.9139 24.1248 28.4659 24.2185C27.0205 24.3121 25.3604 24.3747 23.7869 24.4165C22.2142 24.4582 20.7314 24.4791 19.6415 24.4896C19.0967 24.4948 18.6503 24.4974 18.3403 24.4987C18.1852 24.4993 18.0643 24.4997 17.9822 24.4998L17.8888 24.5L17.865 24.5L17.8591 24.5H17.8576H17.8572L17.8571 25C17.8571 24.5 17.8571 24.5 17.857 24.5H17.8567H17.8552L17.8491 24.5L17.8249 24.5L17.7296 24.4998C17.6459 24.4997 17.5227 24.4993 17.3648 24.4987C17.0491 24.4974 16.5948 24.4948 16.0413 24.4896C14.934 24.4791 13.4302 24.4582 11.8435 24.4165C10.256 24.3747 8.58915 24.3121 7.15446 24.2186C5.71176 24.1245 4.54577 24.0013 3.92423 23.8474C2.53602 23.4481 1.5544 22.4676 1.15392 21.0802C0.832304 19.678 0.666655 17.5501 0.583177 15.7415C0.541595 14.8405 0.520789 14.0293 0.510385 13.4433C0.505186 13.1504 0.502589 12.914 0.501292 12.7511C0.500644 12.6696 0.500321 12.6065 0.50016 12.564L0.50002 12.5158L0.500002 12.5038L0.5 12.5008L0.5 12.5002V12.5L0 12.5L0.5 12.5V12.4998L0.5 12.4991L0.500002 12.4961L0.500013 12.4839L0.500107 12.4354C0.500215 12.3926 0.500431 12.3293 0.500865 12.2476C0.501731 12.0842 0.503466 11.8473 0.506939 11.5538C0.513887 10.9666 0.527783 10.1538 0.555564 9.25087C0.610971 7.45008 0.720909 5.31985 0.935778 3.9023C1.33899 2.52573 2.31649 1.55235 3.69644 1.15396C4.37939 0.998223 5.57717 0.875219 7.0252 0.781461C8.47058 0.687875 10.1306 0.625303 11.7041 0.583529C13.2769 0.541774 14.7597 0.520886 15.8495 0.51044C16.3943 0.505218 16.8407 0.502608 17.1508 0.501303C17.3058 0.500651 17.4268 0.500325 17.5089 0.500162L17.6023 0.50002L17.6261 0.500003L17.632 0.5L17.6335 0.5L17.6338 0.5L17.6339 0C17.6339 0.5 17.6339 0.5 17.634 0.5L17.6344 0.5L17.6359 0.5L17.6419 0.500003L17.6662 0.50002L17.7614 0.500163C17.8451 0.500325 17.9684 0.500651 18.1262 0.501304C18.442 0.502608 18.8962 0.505219 19.4498 0.510441C20.5571 0.520887 22.0608 0.541776 23.6476 0.583533C25.2351 0.625309 26.9019 0.68788 28.3366 0.781446C29.7793 0.875535 30.9453 0.998744 31.5669 1.15263C32.9591 1.55303 33.9424 2.5382 34.3407 3.932ZM13.7857 17.8571V18.7187L14.5338 18.2913L23.9088 12.9341L24.6685 12.5L23.9088 12.0659L14.5338 6.70874L13.7857 6.28127V7.14286V17.8571Z" fill="#FF0000" stroke="white"/>
</svg>
