<svg width="25" height="25" viewBox="0 0 25 25" fill="none" xmlns="http://www.w3.org/2000/svg">
<g clip-path="url(#clip0_83_1516)">
<path d="M21.2568 0H3.75684C1.68577 0 0.00683594 1.67893 0.00683594 3.75V21.25C0.00683594 23.3211 1.68577 25 3.75684 25H21.2568C23.3279 25 25.0068 23.3211 25.0068 21.25V3.75C25.0068 1.67893 23.3279 0 21.2568 0Z" fill="#0077B5"/>
<path d="M6.94043 8.54492C7.93821 8.54492 8.74707 7.73606 8.74707 6.73828C8.74707 5.7405 7.93821 4.93164 6.94043 4.93164C5.94265 4.93164 5.13379 5.7405 5.13379 6.73828C5.13379 7.73606 5.94265 8.54492 6.94043 8.54492Z" fill="white"/>
<path d="M11.9209 9.47266V19.1406V9.47266ZM6.94043 9.47266V19.1406V9.47266Z" fill="white"/>
<path d="M11.9209 9.47266V19.1406M6.94043 9.47266V19.1406" stroke="white" stroke-width="3.86719"/>
<path d="M13.4834 13.7695C13.4834 12.793 14.1182 11.8164 15.2412 11.8164C16.4131 11.8164 16.8525 12.6953 16.8525 14.0137V19.1406H20.0752V13.623C20.0752 10.6445 18.5127 9.27734 16.3643 9.27734C14.7041 9.27734 13.874 10.2051 13.4834 10.8398" fill="white"/>
</g>
<rect x="0.506836" y="0.5" width="24" height="24" rx="3.5" stroke="white"/>
<defs>
<clipPath id="clip0_83_1516">
<rect x="0.00683594" width="25" height="25" rx="4" fill="white"/>
</clipPath>
</defs>
</svg>
