<svg width="51" height="50" viewBox="0 0 51 50" fill="none" xmlns="http://www.w3.org/2000/svg">
<path d="M28.0283 3.83188V3.88283C28.0283 5.58965 29.1747 7.01624 30.7796 7.52573C38.04 9.793 43.3132 16.5438 43.3132 24.5429C43.3132 25.8676 43.1604 27.1159 42.8802 28.3387C42.5235 29.9691 43.1859 31.6504 44.6379 32.5166L44.6634 32.542C46.8542 33.8158 49.7074 32.6694 50.2934 30.2238C50.7264 28.3896 50.9557 26.479 50.9557 24.5429C50.9557 13.0793 43.3642 3.34786 32.9195 0.163502C30.4994 -0.575268 28.0283 1.2844 28.0283 3.83188ZM22.7805 42.1715C15.1635 41.0761 8.97315 34.8857 7.85225 27.2942C6.47661 18.1233 12.0811 10.0477 20.1566 7.52573C21.787 7.04171 22.9334 5.58965 22.9334 3.88283V3.83188C22.9334 1.2844 20.4623 -0.575268 18.0167 0.163502C6.52756 3.67903 -1.49702 15.0918 0.235273 28.0839C1.73829 39.2419 10.7564 48.26 21.9144 49.763C29.9135 50.833 37.3012 48.2091 42.6254 43.3179C44.5106 41.5856 44.1794 38.5032 41.9631 37.2294C40.4855 36.3633 38.6513 36.6435 37.3776 37.7899C33.6328 41.2035 28.4359 43.0122 22.7805 42.1715Z" fill="url(#paint0_linear_83_1269)"/>
<defs>
<linearGradient id="paint0_linear_83_1269" x1="17.1398" y1="18.6364" x2="60.3312" y2="61.7267" gradientUnits="userSpaceOnUse">
<stop stop-color="#1878BC"/>
<stop offset="1" stop-color="#0B3756"/>
</linearGradient>
</defs>
</svg>
